<?xml version="1.0" encoding="UTF-8"?> <svg xmlns="http://www.w3.org/2000/svg" width="100" height="100" viewBox="0 0 100 100" fill="none"><rect x="5" y="6" width="89" height="89" fill="white"></rect><path d="M100 22.75C99.9405 20.593 99.7736 18.4404 99.5 16.3C99.1261 14.4258 98.5039 12.6098 97.65 10.9C96.7531 9.04745 95.5532 7.35758 94.1 5.9C92.631 4.46038 90.9435 3.26223 89.1 2.35C87.3877 1.51332 85.5718 0.908021 83.7 0.549999C81.5807 0.229677 79.4429 0.0459656 77.3 0H22.75C20.593 0.0595039 18.4404 0.226377 16.3 0.5C14.4258 0.873919 12.6098 1.49607 10.9 2.35C9.04745 3.24695 7.35758 4.44676 5.9 5.9C4.46038 7.36901 3.26223 9.05654 2.35 10.9C1.51332 12.6123 0.908021 14.4282 0.549999 16.3C0.229677 18.4193 0.0459656 20.5571 0 22.7V77.25C0.0595039 79.407 0.226377 81.5596 0.5 83.7C0.873919 85.5742 1.49607 87.3902 2.35 89.1C3.24695 90.9525 4.44676 92.6424 5.9 94.1C7.36901 95.5396 9.05654 96.7378 10.9 97.65C12.6123 98.4867 14.4282 99.092 16.3 99.45C18.4193 99.7703 20.5571 99.954 22.7 100H77.25C79.407 99.9405 81.5596 99.7736 83.7 99.5C85.5742 99.1261 87.3902 98.5039 89.1 97.65C90.9525 96.7531 92.6424 95.5532 94.1 94.1C95.5396 92.631 96.7378 90.9435 97.65 89.1C98.4867 87.3877 99.092 85.5718 99.45 83.7C99.7703 81.5807 99.954 79.4429 100 77.3V22.75ZM51.15 85C46.3889 84.98 41.6936 84.0026 37.3391 82.1402C35.1436 81.2012 32.71 80.8395 30.4007 81.4472L29.9598 81.5632C23.2969 83.3166 17.2272 77.2147 19.0158 70.5612C19.645 68.2207 19.2485 65.7481 18.2372 63.5455C16.1472 58.9936 15.038 54.0372 15 49C15.0199 41.9146 17.136 34.9936 21.0818 29.1085C25.0276 23.2235 30.6266 18.6377 37.1736 15.9286C43.7207 13.2195 50.923 12.5084 57.8734 13.8847C64.8239 15.261 71.2116 18.6633 76.2322 23.663C81.2527 28.6627 84.6815 35.0363 86.0867 41.9809C87.492 48.9256 86.8108 56.1308 84.1289 62.689C81.4471 69.2473 76.8846 74.8653 71.016 78.8355C65.1474 82.8058 58.2352 84.9506 51.15 85ZM51.1251 19.0766C51.1385 19.224 51.0234 19.3514 50.8754 19.3544C45.6699 19.4616 40.5802 20.9219 36.1078 23.5937C31.5567 26.3125 27.8074 30.1886 25.2415 34.8276C22.6756 39.4666 21.3847 44.7026 21.5004 50.0026C21.6161 55.3027 23.1341 60.4774 25.9 65C26.3468 65.734 26.4713 66.6197 26.2443 67.4484L26.0072 68.3138C24.9431 72.1977 28.5049 75.7662 32.3907 74.7095L33.7671 74.3353C34.5553 74.1209 35.3967 74.2344 36.1 74.65C40.6479 77.3288 45.822 78.7603 51.1 78.8C59.0565 78.8 66.6871 75.6393 72.3132 70.0132C77.9393 64.3871 81.1 56.7565 81.1 48.8C81.1 40.8435 77.9393 33.2129 72.3132 27.5868C66.7527 22.0262 59.234 18.874 51.3779 18.8013C51.2288 18.7999 51.1116 18.9281 51.1251 19.0766ZM68.65 61.8578C68.65 61.9181 68.6337 61.9774 68.6022 62.0289C67.9527 63.0877 67.0931 64.0027 66.0761 64.7171C65.0339 65.4492 63.8497 65.9544 62.6 66.2C60.7331 66.5475 58.8091 66.4272 57 65.85C55.2971 65.3164 53.6275 64.6819 52 63.95C45.8187 60.8483 40.5472 56.197 36.7 50.45C34.6145 47.7845 33.3466 44.5714 33.05 41.2C33.0202 39.7989 33.2853 38.4073 33.8279 37.1152C34.3706 35.8232 35.1787 34.6596 36.2 33.7C36.5008 33.3589 36.8699 33.0848 37.2833 32.8953C37.6967 32.7058 38.1453 32.6052 38.6 32.6H40C40.55 32.6 41.3 32.6 42 34.15C42.7 35.7 44.55 40.35 44.8 40.8C44.9229 41.0399 44.9869 41.3055 44.9869 41.575C44.9869 41.8445 44.9229 42.1101 44.8 42.35C44.5819 42.8948 44.2781 43.4012 43.9 43.85C43.45 44.4 42.95 45.05 42.55 45.45C42.15 45.85 41.65 46.35 42.15 47.25C43.5127 49.5444 45.1964 51.6322 47.15 53.45C49.2796 55.3318 51.7145 56.8367 54.35 57.9C55.25 58.35 55.8 58.3 56.3 57.9C56.8 57.5 58.55 55.3 59.15 54.4C59.75 53.5 60.35 53.65 61.15 53.95C61.95 54.25 66.4 56.4 67.3 56.85C68.4927 57.4464 69.1961 58.5857 69.0699 59.9132C69.0108 60.5355 68.8768 61.1508 68.6692 61.7455C68.6566 61.7816 68.65 61.8195 68.65 61.8578Z" fill="#25D366"></path></svg> 