<?xml version="1.0" encoding="UTF-8"?> <svg xmlns="http://www.w3.org/2000/svg" width="110" height="110" viewBox="0 0 110 110" fill="none"><rect width="110" height="110" rx="30" fill="#E6E6E6"></rect><path d="M33.6667 74C32.9111 74 32.2782 73.696 31.768 73.088C31.2578 72.48 31.0018 71.7284 31 70.8333C30.9982 69.9382 31.2542 69.1866 31.768 68.5786C32.2818 67.9706 32.9147 67.6666 33.6667 67.6666H76.3333C77.0889 67.6666 77.7227 67.9706 78.2347 68.5786C78.7467 69.1866 79.0018 69.9382 79 70.8333C78.9982 71.7284 78.7422 72.481 78.232 73.0911C77.7218 73.7012 77.0889 74.0042 76.3333 74H33.6667ZM33.6667 58.1666C32.9111 58.1666 32.2782 57.8626 31.768 57.2546C31.2578 56.6466 31.0018 55.8951 31 55C30.9982 54.1049 31.2542 53.3533 31.768 52.7453C32.2818 52.1373 32.9147 51.8333 33.6667 51.8333H76.3333C77.0889 51.8333 77.7227 52.1373 78.2347 52.7453C78.7467 53.3533 79.0018 54.1049 79 55C78.9982 55.8951 78.7422 56.6477 78.232 57.2578C77.7218 57.8679 77.0889 58.1709 76.3333 58.1666H33.6667ZM33.6667 42.3333C32.9111 42.3333 32.2782 42.0293 31.768 41.4213C31.2578 40.8133 31.0018 40.0618 31 39.1667C30.9982 38.2716 31.2542 37.52 31.768 36.912C32.2818 36.304 32.9147 36 33.6667 36H76.3333C77.0889 36 77.7227 36.304 78.2347 36.912C78.7467 37.52 79.0018 38.2716 79 39.1667C78.9982 40.0618 78.7422 40.8144 78.232 41.4245C77.7218 42.0346 77.0889 42.3375 76.3333 42.3333H33.6667Z" fill="#30313D"></path></svg> 