<?xml version="1.0" encoding="UTF-8"?> <svg xmlns="http://www.w3.org/2000/svg" width="63" height="63" viewBox="0 0 63 63" fill="none"><rect x="4" y="4" width="55" height="55" rx="27.5" fill="#2046D2"></rect><path d="M13.5 0C9.91958 0 6.4858 1.42232 3.95406 3.95406C1.42232 6.4858 0 9.91958 0 13.5V49.5C0 53.0804 1.42232 56.5142 3.95406 59.0459C6.4858 61.5777 9.91958 63 13.5 63H49.5C53.0804 63 56.5142 61.5777 59.0459 59.0459C61.5777 56.5142 63 53.0804 63 49.5V13.5C63 9.91958 61.5777 6.4858 59.0459 3.95406C56.5142 1.42232 53.0804 0 49.5 0H13.5ZM46.593 24.093L28.593 42.093C28.384 42.3025 28.1357 42.4688 27.8623 42.5822C27.589 42.6956 27.296 42.754 27 42.754C26.704 42.754 26.411 42.6956 26.1377 42.5822C25.8643 42.4688 25.616 42.3025 25.407 42.093L16.407 33.093C15.9845 32.6705 15.7472 32.0975 15.7472 31.5C15.7472 30.9025 15.9845 30.3295 16.407 29.907C16.8295 29.4845 17.4025 29.2472 18 29.2472C18.5975 29.2472 19.1705 29.4845 19.593 29.907L27 37.3185L43.407 20.907C43.8295 20.4845 44.4025 20.2472 45 20.2472C45.5975 20.2472 46.1705 20.4845 46.593 20.907C47.0155 21.3295 47.2528 21.9025 47.2528 22.5C47.2528 23.0975 47.0155 23.6705 46.593 24.093Z" fill="#C2CFFF"></path></svg> 