<?xml version="1.0" encoding="UTF-8"?> <svg xmlns="http://www.w3.org/2000/svg" width="451" height="138" viewBox="0 0 451 138" fill="none"><path d="M177.604 55.926C179.499 55.926 181.161 55.752 182.592 55.404C184.061 55.0173 185.279 54.5147 186.246 53.896C187.251 53.2773 188.005 52.5813 188.508 51.808C189.011 50.996 189.262 50.1647 189.262 49.314C189.262 48.7727 189.185 48.3087 189.03 47.922C188.914 47.4967 188.643 47.1293 188.218 46.82C187.831 46.472 187.251 46.1433 186.478 45.834C185.743 45.5247 184.757 45.196 183.52 44.848L172.152 41.484C169.291 40.6333 167.28 39.5313 166.12 38.178C164.96 36.8247 164.38 35.0847 164.38 32.958C164.38 31.5273 164.747 30.1933 165.482 28.956C166.217 27.68 167.28 26.578 168.672 25.65C170.103 24.722 171.862 24.0067 173.95 23.504C176.038 22.9627 178.455 22.692 181.2 22.692C182.94 22.692 184.719 22.866 186.536 23.214C188.353 23.5233 190.016 23.9873 191.524 24.606C193.032 25.2247 194.25 25.9593 195.178 26.81C196.145 27.622 196.628 28.5307 196.628 29.536C196.628 30.3093 196.299 31.0053 195.642 31.624C195.023 32.2427 194.115 32.552 192.916 32.552C192.143 32.552 191.466 32.4167 190.886 32.146C190.306 31.8753 189.861 31.5467 189.552 31.16C188.199 29.536 186.691 28.3567 185.028 27.622C183.365 26.8873 181.432 26.52 179.228 26.52C176.56 26.52 174.491 27.1 173.022 28.26C171.591 29.3813 170.876 30.7347 170.876 32.32C170.876 33.4413 171.243 34.3693 171.978 35.104C172.713 35.8 174.105 36.438 176.154 37.018L188.508 40.556C189.9 40.9813 191.06 41.4453 191.988 41.948C192.955 42.412 193.728 42.9533 194.308 43.572C194.888 44.152 195.294 44.8287 195.526 45.602C195.758 46.3367 195.874 47.168 195.874 48.096C195.874 49.372 195.41 50.706 194.482 52.098C193.593 53.4513 192.336 54.708 190.712 55.868C189.088 56.9893 187.135 57.9367 184.854 58.71C182.573 59.4447 180.059 59.812 177.314 59.812C174.646 59.812 172.229 59.5413 170.064 59C167.899 58.4587 166.062 57.724 164.554 56.796C163.046 55.8293 161.867 54.6887 161.016 53.374C160.204 52.0593 159.798 50.648 159.798 49.14C159.798 48.0187 160.088 47.1293 160.668 46.472C161.287 45.8147 162.079 45.486 163.046 45.486C164.013 45.486 164.767 45.7373 165.308 46.24C165.849 46.7427 166.352 47.7287 166.816 49.198C167.087 50.126 167.551 50.996 168.208 51.808C168.904 52.62 169.716 53.3353 170.644 53.954C171.611 54.534 172.674 55.0173 173.834 55.404C175.033 55.752 176.289 55.926 177.604 55.926ZM217.929 35.394C221.409 35.394 223.942 36.0513 225.527 37.366C227.113 38.6807 227.905 40.4013 227.905 42.528C227.905 43.1853 227.789 43.8427 227.557 44.5C227.364 45.1573 227.267 45.7567 227.267 46.298V57.26C227.267 57.9173 227.035 58.478 226.571 58.942C226.146 59.3673 225.431 59.58 224.425 59.58C223.381 59.58 222.627 59.3673 222.163 58.942C221.738 58.478 221.525 57.9173 221.525 57.26V53.374C219.785 55.346 217.736 56.912 215.377 58.072C213.019 59.232 210.505 59.812 207.837 59.812C204.319 59.812 201.767 59.1353 200.181 57.782C198.635 56.39 197.861 54.5147 197.861 52.156C197.861 50.1453 198.403 48.154 199.485 46.182C200.568 44.1713 202.037 42.3733 203.893 40.788C205.749 39.164 207.876 37.8687 210.273 36.902C212.709 35.8967 215.261 35.394 217.929 35.394ZM215.899 38.816C214.198 38.816 212.632 39.1447 211.201 39.802C209.771 40.4207 208.514 41.252 207.431 42.296C206.387 43.34 205.556 44.5387 204.937 45.892C204.357 47.2453 204.067 48.6373 204.067 50.068C204.067 51.8853 204.57 53.2967 205.575 54.302C206.619 55.2687 208.089 55.752 209.983 55.752C211.607 55.752 213.135 55.4427 214.565 54.824C215.996 54.1667 217.233 53.316 218.277 52.272C219.36 51.228 220.211 50.0293 220.829 48.676C221.487 47.3227 221.815 45.9113 221.815 44.442C221.815 42.7407 221.274 41.3873 220.191 40.382C219.147 39.338 217.717 38.816 215.899 38.816ZM238.065 42.992C241.197 37.9267 245.876 35.394 252.101 35.394C255.504 35.394 258.017 36.0707 259.641 37.424C261.265 38.7773 262.077 40.556 262.077 42.76C262.077 43.9587 261.864 45.254 261.439 46.646C261.014 48.038 260.414 49.4493 259.641 50.88C258.906 52.3107 257.998 53.722 256.915 55.114C255.832 56.4673 254.653 57.7047 253.377 58.826C252.952 59.2513 252.565 59.522 252.217 59.638C251.908 59.754 251.56 59.812 251.173 59.812C250.67 59.812 250.226 59.6187 249.839 59.232C249.491 58.884 249.317 58.5167 249.317 58.13C249.317 57.9367 249.356 57.7433 249.433 57.55C249.51 57.318 249.704 57.0473 250.013 56.738C250.941 55.7713 251.753 54.7467 252.449 53.664C253.184 52.5427 253.783 51.46 254.247 50.416C254.75 49.3333 255.136 48.3087 255.407 47.342C255.678 46.3753 255.813 45.5053 255.813 44.732C255.813 42.7213 255.291 41.2327 254.247 40.266C253.242 39.2993 251.811 38.816 249.955 38.816C248.486 38.816 247.036 39.1447 245.605 39.802C244.213 40.4593 242.976 41.3873 241.893 42.586C240.81 43.746 239.94 45.138 239.283 46.762C238.626 48.3473 238.297 50.0873 238.297 51.982V57.376C238.297 58.0333 238.065 58.5747 237.601 59C237.176 59.464 236.441 59.696 235.397 59.696C234.392 59.696 233.657 59.464 233.193 59C232.768 58.5747 232.555 58.0333 232.555 57.376V38.236C232.555 37.5787 232.768 37.0373 233.193 36.612C233.618 36.148 234.314 35.916 235.281 35.916C236.286 35.916 237.002 36.148 237.427 36.612C237.852 37.0373 238.065 37.5787 238.065 38.236V42.992ZM276.339 59.812C275.063 59.812 273.884 59.638 272.801 59.29C271.719 58.942 270.791 58.4587 270.017 57.84C269.244 57.2213 268.645 56.4867 268.219 55.636C267.794 54.7853 267.581 53.8573 267.581 52.852C267.581 51.9627 267.659 51.2667 267.813 50.764C268.007 50.2227 268.103 49.5847 268.103 48.85V39.802H265.493C264.372 39.802 263.811 39.1833 263.811 37.946C263.811 36.7473 264.372 36.148 265.493 36.148H268.103V30.986C268.103 30.3287 268.316 29.7873 268.741 29.362C269.205 28.898 269.94 28.666 270.945 28.666C271.989 28.666 272.724 28.898 273.149 29.362C273.613 29.7873 273.845 30.3287 273.845 30.986V36.148H281.211C282.333 36.148 282.893 36.7473 282.893 37.946C282.893 39.1833 282.333 39.802 281.211 39.802H273.845V50.474C273.845 54.186 275.257 56.042 278.079 56.042C279.085 56.042 279.916 55.9647 280.573 55.81C281.269 55.6553 281.946 55.4233 282.603 55.114C282.913 54.9593 283.183 54.882 283.415 54.882C283.841 54.882 284.189 55.0173 284.459 55.288C284.73 55.5587 284.865 55.9067 284.865 56.332C284.865 56.9893 284.537 57.5113 283.879 57.898C282.835 58.478 281.637 58.942 280.283 59.29C278.93 59.638 277.615 59.812 276.339 59.812ZM304.952 35.394C308.239 35.394 310.636 35.9547 312.144 37.076C313.691 38.1973 314.464 39.57 314.464 41.194C314.464 43.0887 313.787 44.7127 312.434 46.066C311.119 47.3807 308.857 48.3087 305.648 48.85L291.206 51.286C291.206 52.7167 291.593 53.8573 292.366 54.708C293.178 55.52 294.647 55.926 296.774 55.926C298.707 55.926 300.486 55.694 302.11 55.23C303.773 54.766 305.358 54.1667 306.866 53.432C307.562 53.084 308.103 52.91 308.49 52.91C309.379 52.91 309.824 53.4513 309.824 54.534C309.824 55.1913 309.418 55.7327 308.606 56.158C304.121 58.594 299.616 59.812 295.092 59.812C293.275 59.812 291.709 59.6187 290.394 59.232C289.118 58.8453 288.074 58.3233 287.262 57.666C286.45 56.97 285.851 56.158 285.464 55.23C285.077 54.302 284.884 53.2967 284.884 52.214C284.884 50.2033 285.425 48.1927 286.508 46.182C287.591 44.1713 289.041 42.3733 290.858 40.788C292.714 39.2027 294.841 37.9073 297.238 36.902C299.674 35.8967 302.245 35.394 304.952 35.394ZM303.038 38.7C301.685 38.7 300.351 38.9513 299.036 39.454C297.721 39.9567 296.523 40.6333 295.44 41.484C294.396 42.3347 293.487 43.3207 292.714 44.442C291.979 45.5247 291.496 46.646 291.264 47.806L303.908 45.776C305.841 45.4667 307.098 45.022 307.678 44.442C308.297 43.862 308.606 43.1273 308.606 42.238C308.606 41.31 308.142 40.498 307.214 39.802C306.286 39.0673 304.894 38.7 303.038 38.7ZM322.544 57.26C322.544 57.9173 322.312 58.478 321.848 58.942C321.423 59.3673 320.688 59.58 319.644 59.58C318.639 59.58 317.904 59.3673 317.44 58.942C317.015 58.478 316.802 57.9173 316.802 57.26V20.604C316.802 19.9467 317.015 19.4053 317.44 18.98C317.904 18.516 318.639 18.284 319.644 18.284C320.688 18.284 321.423 18.516 321.848 18.98C322.312 19.4053 322.544 19.9467 322.544 20.604L322.37 43.862C322.757 42.818 323.356 41.7933 324.168 40.788C325.019 39.7827 325.986 38.8933 327.068 38.12C328.19 37.308 329.408 36.67 330.722 36.206C332.037 35.742 333.371 35.51 334.724 35.51C336.116 35.51 337.102 35.7613 337.682 36.264C338.262 36.728 338.552 37.3467 338.552 38.12C338.552 39.86 337.895 40.73 336.58 40.73C336.194 40.73 335.826 40.6913 335.478 40.614C335.169 40.498 334.84 40.382 334.492 40.266C334.144 40.1113 333.758 39.9953 333.332 39.918C332.946 39.802 332.482 39.744 331.94 39.744C331.012 39.744 330.142 39.918 329.33 40.266C328.518 40.5753 327.803 41.0007 327.184 41.542C326.604 42.0447 326.14 42.644 325.792 43.34C325.483 44.036 325.328 44.7513 325.328 45.486C325.328 46.4913 325.657 47.4773 326.314 48.444C326.972 49.4107 327.803 50.3 328.808 51.112C329.852 51.924 330.974 52.62 332.172 53.2C333.41 53.78 334.608 54.1667 335.768 54.36C336.774 54.5533 337.45 54.8433 337.798 55.23C338.146 55.578 338.32 56.1967 338.32 57.086C338.32 57.8207 338.088 58.4587 337.624 59C337.16 59.5413 336.464 59.812 335.536 59.812C334.106 59.812 332.636 59.4447 331.128 58.71C329.659 57.9753 328.306 56.97 327.068 55.694C325.831 54.418 324.768 52.9293 323.878 51.228C323.028 49.5653 322.525 47.7867 322.37 45.892L322.544 57.26ZM345.923 42.934C347.469 40.498 349.383 38.642 351.665 37.366C353.985 36.0513 356.711 35.394 359.843 35.394C363.245 35.394 365.759 36.0707 367.383 37.424C369.007 38.7773 369.819 40.556 369.819 42.76C369.819 43.9587 369.606 45.254 369.181 46.646C368.755 48.038 368.156 49.4493 367.383 50.88C366.648 52.3107 365.739 53.722 364.657 55.114C363.574 56.4673 362.395 57.7047 361.119 58.826C360.693 59.2513 360.307 59.522 359.959 59.638C359.649 59.754 359.301 59.812 358.915 59.812C358.412 59.812 357.967 59.6187 357.581 59.232C357.233 58.884 357.059 58.5167 357.059 58.13C357.059 57.9367 357.097 57.7433 357.175 57.55C357.252 57.318 357.445 57.0473 357.755 56.738C358.683 55.7713 359.495 54.7467 360.191 53.664C360.925 52.5427 361.525 51.46 361.989 50.416C362.491 49.3333 362.878 48.3087 363.149 47.342C363.419 46.3753 363.555 45.5053 363.555 44.732C363.555 42.7213 363.033 41.2327 361.989 40.266C360.983 39.2993 359.553 38.816 357.697 38.816C356.227 38.816 354.777 39.1447 353.347 39.802C351.955 40.4593 350.717 41.3873 349.635 42.586C348.552 43.746 347.682 45.138 347.025 46.762C346.367 48.3473 346.039 50.0873 346.039 51.982V57.376C346.039 58.0333 345.807 58.5747 345.343 59C344.917 59.464 344.183 59.696 343.139 59.696C342.133 59.696 341.399 59.464 340.935 59C340.509 58.5747 340.297 58.0333 340.297 57.376V20.604C340.297 19.9467 340.509 19.4053 340.935 18.98C341.399 18.516 342.114 18.284 343.081 18.284C344.975 18.284 345.923 18.9993 345.923 20.43V42.934ZM379.383 42.992C382.515 37.9267 387.194 35.394 393.419 35.394C396.822 35.394 399.335 36.0707 400.959 37.424C402.583 38.7773 403.395 40.556 403.395 42.76C403.395 43.9587 403.183 45.254 402.757 46.646C402.332 48.038 401.733 49.4493 400.959 50.88C400.225 52.3107 399.316 53.722 398.233 55.114C397.151 56.4673 395.971 57.7047 394.695 58.826C394.27 59.2513 393.883 59.522 393.535 59.638C393.226 59.754 392.878 59.812 392.491 59.812C391.989 59.812 391.544 59.6187 391.157 59.232C390.809 58.884 390.635 58.5167 390.635 58.13C390.635 57.9367 390.674 57.7433 390.751 57.55C390.829 57.318 391.022 57.0473 391.331 56.738C392.259 55.7713 393.071 54.7467 393.767 53.664C394.502 52.5427 395.101 51.46 395.565 50.416C396.068 49.3333 396.455 48.3087 396.725 47.342C396.996 46.3753 397.131 45.5053 397.131 44.732C397.131 42.7213 396.609 41.2327 395.565 40.266C394.56 39.2993 393.129 38.816 391.273 38.816C389.804 38.816 388.354 39.1447 386.923 39.802C385.531 40.4593 384.294 41.3873 383.211 42.586C382.129 43.746 381.259 45.138 380.601 46.762C379.944 48.3473 379.615 50.0873 379.615 51.982V57.376C379.615 58.0333 379.383 58.5747 378.919 59C378.494 59.464 377.759 59.696 376.715 59.696C375.71 59.696 374.975 59.464 374.511 59C374.086 58.5747 373.873 58.0333 373.873 57.376V38.236C373.873 37.5787 374.086 37.0373 374.511 36.612C374.937 36.148 375.633 35.916 376.599 35.916C377.605 35.916 378.32 36.148 378.745 36.612C379.171 37.0373 379.383 37.5787 379.383 38.236V42.992ZM413.308 57.26C413.308 57.9173 413.076 58.478 412.612 58.942C412.148 59.3673 411.394 59.58 410.35 59.58C409.345 59.58 408.61 59.3673 408.146 58.942C407.682 58.478 407.45 57.9173 407.45 57.26V37.946C407.45 37.2887 407.682 36.7473 408.146 36.322C408.61 35.858 409.345 35.626 410.35 35.626C411.394 35.626 412.148 35.858 412.612 36.322C413.076 36.7473 413.308 37.2887 413.308 37.946V57.26ZM410.35 30.348C409.19 30.348 408.339 30.116 407.798 29.652C407.257 29.1493 406.986 28.5693 406.986 27.912V25.708C406.986 25.0507 407.257 24.49 407.798 24.026C408.339 23.5233 409.19 23.272 410.35 23.272C411.471 23.272 412.303 23.5233 412.844 24.026C413.424 24.49 413.714 25.0507 413.714 25.708V27.912C413.714 28.5693 413.424 29.1493 412.844 29.652C412.303 30.116 411.471 30.348 410.35 30.348ZM424.282 57.26C424.282 57.9173 424.05 58.478 423.586 58.942C423.161 59.3673 422.426 59.58 421.382 59.58C420.377 59.58 419.642 59.3673 419.178 58.942C418.753 58.478 418.54 57.9173 418.54 57.26V20.604C418.54 19.9467 418.753 19.4053 419.178 18.98C419.642 18.516 420.377 18.284 421.382 18.284C422.426 18.284 423.161 18.516 423.586 18.98C424.05 19.4053 424.282 19.9467 424.282 20.604L424.108 43.862C424.495 42.818 425.094 41.7933 425.906 40.788C426.757 39.7827 427.723 38.8933 428.806 38.12C429.927 37.308 431.145 36.67 432.46 36.206C433.775 35.742 435.109 35.51 436.462 35.51C437.854 35.51 438.84 35.7613 439.42 36.264C440 36.728 440.29 37.3467 440.29 38.12C440.29 39.86 439.633 40.73 438.318 40.73C437.931 40.73 437.564 40.6913 437.216 40.614C436.907 40.498 436.578 40.382 436.23 40.266C435.882 40.1113 435.495 39.9953 435.07 39.918C434.683 39.802 434.219 39.744 433.678 39.744C432.75 39.744 431.88 39.918 431.068 40.266C430.256 40.5753 429.541 41.0007 428.922 41.542C428.342 42.0447 427.878 42.644 427.53 43.34C427.221 44.036 427.066 44.7513 427.066 45.486C427.066 46.4913 427.395 47.4773 428.052 48.444C428.709 49.4107 429.541 50.3 430.546 51.112C431.59 51.924 432.711 52.62 433.91 53.2C435.147 53.78 436.346 54.1667 437.506 54.36C438.511 54.5533 439.188 54.8433 439.536 55.23C439.884 55.578 440.058 56.1967 440.058 57.086C440.058 57.8207 439.826 58.4587 439.362 59C438.898 59.5413 438.202 59.812 437.274 59.812C435.843 59.812 434.374 59.4447 432.866 58.71C431.397 57.9753 430.043 56.97 428.806 55.694C427.569 54.418 426.505 52.9293 425.616 51.228C424.765 49.5653 424.263 47.7867 424.108 45.892L424.282 57.26ZM186.478 94.048V92.076C186.478 88.3253 185.743 85.638 184.274 84.014C182.805 82.3513 180.736 81.52 178.068 81.52C176.831 81.52 175.632 81.7713 174.472 82.274C173.312 82.7767 172.249 83.55 171.282 84.594C170.354 85.638 169.523 86.9527 168.788 88.538C168.092 90.0847 167.57 91.9213 167.222 94.048H186.478ZM166.932 97.76C166.932 100.312 167.164 102.574 167.628 104.546C168.092 106.479 168.73 108.123 169.542 109.476C169.89 110.056 170.122 110.559 170.238 110.984C170.393 111.409 170.47 111.835 170.47 112.26C170.47 112.917 170.161 113.497 169.542 114C168.962 114.541 168.169 114.812 167.164 114.812C166.507 114.812 165.849 114.599 165.192 114.174C164.573 113.749 164.032 113.091 163.568 112.202C162.833 110.771 162.253 109.031 161.828 106.982C161.403 104.894 161.19 102.767 161.19 100.602C161.19 97.2767 161.673 94.222 162.64 91.438C163.645 88.6153 164.999 86.1987 166.7 84.188C168.44 82.1387 170.431 80.5533 172.674 79.432C174.955 78.272 177.372 77.692 179.924 77.692C184.139 77.692 187.29 78.7553 189.378 80.882C191.466 82.97 192.51 86.2373 192.51 90.684V112.376C192.51 113.111 192.259 113.691 191.756 114.116C191.253 114.58 190.499 114.812 189.494 114.812C188.489 114.812 187.735 114.58 187.232 114.116C186.729 113.691 186.478 113.111 186.478 112.376V97.76H166.932ZM203.59 112.26C203.59 112.917 203.358 113.478 202.894 113.942C202.43 114.367 201.676 114.58 200.632 114.58C199.627 114.58 198.892 114.367 198.428 113.942C197.964 113.478 197.732 112.917 197.732 112.26V75.604C197.732 74.9467 197.964 74.4053 198.428 73.98C198.892 73.516 199.627 73.284 200.632 73.284C201.676 73.284 202.43 73.516 202.894 73.98C203.358 74.4053 203.59 74.9467 203.59 75.604V112.26ZM223.149 90.394C224.966 90.394 226.397 90.974 227.441 92.134C228.485 93.294 229.045 94.976 229.123 97.18C230.36 94.744 231.733 93.004 233.241 91.96C234.749 90.916 236.547 90.394 238.635 90.394C239.949 90.394 241.071 90.6067 241.999 91.032C242.965 91.4187 243.758 91.9793 244.377 92.714C244.995 93.41 245.459 94.2413 245.769 95.208C246.078 96.136 246.233 97.1413 246.233 98.224C246.233 99.4227 246.059 100.757 245.711 102.226C245.401 103.657 244.957 105.107 244.377 106.576C243.835 108.007 243.178 109.379 242.405 110.694C241.67 111.97 240.858 113.053 239.969 113.942C239.543 114.367 239.157 114.638 238.809 114.754C238.461 114.87 238.093 114.928 237.707 114.928C237.204 114.928 236.759 114.754 236.373 114.406C236.025 114.058 235.851 113.691 235.851 113.304C235.851 113.111 235.889 112.917 235.967 112.724C236.083 112.492 236.295 112.183 236.605 111.796C237.03 111.216 237.436 110.481 237.823 109.592C238.248 108.703 238.615 107.717 238.925 106.634C239.273 105.551 239.543 104.411 239.737 103.212C239.93 102.013 240.027 100.853 240.027 99.732C240.027 95.788 238.789 93.816 236.315 93.816C235.425 93.816 234.555 94.164 233.705 94.86C232.893 95.5173 232.158 96.4453 231.501 97.644C230.843 98.804 230.302 100.196 229.877 101.82C229.49 103.405 229.297 105.145 229.297 107.04V112.376C229.297 113.033 229.065 113.575 228.601 114C228.175 114.464 227.441 114.696 226.397 114.696C225.391 114.696 224.657 114.464 224.193 114C223.767 113.575 223.555 113.033 223.555 112.376V98.92C223.555 97.0253 223.342 95.7107 222.917 94.976C222.53 94.2027 221.892 93.816 221.003 93.816C220.229 93.816 219.456 94.164 218.683 94.86C217.948 95.556 217.271 96.5033 216.653 97.702C216.034 98.862 215.531 100.254 215.145 101.878C214.758 103.463 214.565 105.165 214.565 106.982V112.376C214.565 113.033 214.333 113.575 213.869 114C213.443 114.464 212.709 114.696 211.665 114.696C210.659 114.696 209.925 114.464 209.461 114C209.035 113.575 208.823 113.033 208.823 112.376V93.236C208.823 92.5787 209.035 92.0373 209.461 91.612C209.886 91.148 210.582 90.916 211.549 90.916C212.554 90.916 213.269 91.148 213.695 91.612C214.12 92.0373 214.333 92.5787 214.333 93.236V97.818C215.261 95.1113 216.44 93.1973 217.871 92.076C219.301 90.9547 221.061 90.394 223.149 90.394ZM268.883 90.394C272.363 90.394 274.896 91.0513 276.481 92.366C278.067 93.6807 278.859 95.4013 278.859 97.528C278.859 98.1853 278.743 98.8427 278.511 99.5C278.318 100.157 278.221 100.757 278.221 101.298V112.26C278.221 112.917 277.989 113.478 277.525 113.942C277.1 114.367 276.385 114.58 275.379 114.58C274.335 114.58 273.581 114.367 273.117 113.942C272.692 113.478 272.479 112.917 272.479 112.26V108.374C270.739 110.346 268.69 111.912 266.331 113.072C263.973 114.232 261.459 114.812 258.791 114.812C255.273 114.812 252.721 114.135 251.135 112.782C249.589 111.39 248.815 109.515 248.815 107.156C248.815 105.145 249.357 103.154 250.439 101.182C251.522 99.1713 252.991 97.3733 254.847 95.788C256.703 94.164 258.83 92.8687 261.227 91.902C263.663 90.8967 266.215 90.394 268.883 90.394ZM266.853 93.816C265.152 93.816 263.586 94.1447 262.155 94.802C260.725 95.4207 259.468 96.252 258.385 97.296C257.341 98.34 256.51 99.5387 255.891 100.892C255.311 102.245 255.021 103.637 255.021 105.068C255.021 106.885 255.524 108.297 256.529 109.302C257.573 110.269 259.043 110.752 260.937 110.752C262.561 110.752 264.089 110.443 265.519 109.824C266.95 109.167 268.187 108.316 269.231 107.272C270.314 106.228 271.165 105.029 271.783 103.676C272.441 102.323 272.769 100.911 272.769 99.442C272.769 97.7407 272.228 96.3873 271.145 95.382C270.101 94.338 268.671 93.816 266.853 93.816ZM293.717 114.812C292.441 114.812 291.261 114.638 290.179 114.29C289.096 113.942 288.168 113.459 287.395 112.84C286.621 112.221 286.022 111.487 285.597 110.636C285.171 109.785 284.959 108.857 284.959 107.852C284.959 106.963 285.036 106.267 285.191 105.764C285.384 105.223 285.481 104.585 285.481 103.85V94.802H282.871C281.749 94.802 281.189 94.1833 281.189 92.946C281.189 91.7473 281.749 91.148 282.871 91.148H285.481V85.986C285.481 85.3287 285.693 84.7873 286.119 84.362C286.583 83.898 287.317 83.666 288.323 83.666C289.367 83.666 290.101 83.898 290.527 84.362C290.991 84.7873 291.223 85.3287 291.223 85.986V91.148H298.589C299.71 91.148 300.271 91.7473 300.271 92.946C300.271 94.1833 299.71 94.802 298.589 94.802H291.223V105.474C291.223 109.186 292.634 111.042 295.457 111.042C296.462 111.042 297.293 110.965 297.951 110.81C298.647 110.655 299.323 110.423 299.981 110.114C300.29 109.959 300.561 109.882 300.793 109.882C301.218 109.882 301.566 110.017 301.837 110.288C302.107 110.559 302.243 110.907 302.243 111.332C302.243 111.989 301.914 112.511 301.257 112.898C300.213 113.478 299.014 113.942 297.661 114.29C296.307 114.638 294.993 114.812 293.717 114.812ZM327.42 107.098C325.834 109.689 323.901 111.622 321.62 112.898C319.377 114.174 316.825 114.812 313.964 114.812C310.445 114.812 307.796 114.097 306.018 112.666C304.278 111.197 303.408 109.36 303.408 107.156C303.408 105.996 303.62 104.739 304.046 103.386C304.471 101.994 305.051 100.602 305.786 99.21C306.559 97.818 307.487 96.4453 308.57 95.092C309.652 93.7387 310.832 92.5013 312.108 91.38C312.533 90.9547 312.9 90.684 313.21 90.568C313.558 90.452 313.925 90.394 314.312 90.394C314.814 90.394 315.24 90.5873 315.588 90.974C315.974 91.322 316.168 91.6893 316.168 92.076C316.168 92.2693 316.129 92.482 316.052 92.714C315.974 92.9073 315.781 93.1587 315.472 93.468C314.544 94.4733 313.712 95.5173 312.978 96.6C312.282 97.644 311.682 98.7073 311.18 99.79C310.716 100.834 310.348 101.839 310.078 102.806C309.807 103.773 309.672 104.643 309.672 105.416C309.672 107.427 310.174 108.935 311.18 109.94C312.224 110.907 313.674 111.39 315.53 111.39C317.038 111.39 318.488 111.061 319.88 110.404C321.31 109.747 322.548 108.838 323.592 107.678C324.674 106.518 325.544 105.145 326.202 103.56C326.859 101.975 327.188 100.235 327.188 98.34V93.236C327.188 92.5787 327.4 92.0373 327.826 91.612C328.29 91.148 329.044 90.916 330.088 90.916C331.093 90.916 331.808 91.148 332.234 91.612C332.698 92.0373 332.93 92.5787 332.93 93.236V112.434C332.93 113.053 332.988 113.575 333.104 114C333.22 114.425 333.278 114.87 333.278 115.334C333.278 117.306 332.736 119.278 331.654 121.25C330.61 123.222 329.179 125.001 327.362 126.586C325.544 128.171 323.398 129.447 320.924 130.414C318.488 131.419 315.858 131.922 313.036 131.922C309.865 131.922 307.468 131.303 305.844 130.066C304.258 128.867 303.466 127.417 303.466 125.716C303.466 124.672 303.736 123.821 304.278 123.164C304.858 122.545 305.554 122.236 306.366 122.236C307.062 122.236 307.584 122.371 307.932 122.642C308.318 122.951 308.628 123.319 308.86 123.744C309.092 124.169 309.324 124.614 309.556 125.078C309.788 125.581 310.116 126.045 310.542 126.47C310.967 126.895 311.528 127.243 312.224 127.514C312.958 127.823 313.925 127.978 315.124 127.978C316.902 127.978 318.526 127.688 319.996 127.108C321.504 126.528 322.799 125.716 323.882 124.672C325.003 123.667 325.873 122.429 326.492 120.96C327.11 119.529 327.42 117.944 327.42 116.204V107.098Z" fill="#2046D2"></path><path d="M90.7204 12.2585C93.1968 12.0296 96.9654 12.7925 99.2089 13.8778C104.075 16.2314 107.718 19.7975 109.615 24.8895C112.228 31.9067 110.818 38.2214 107.883 44.8021C107.027 46.7228 104.723 50.3649 103.088 51.6336C101.947 52.519 98.6047 53.9377 97.1829 54.4538C96.9361 56.7901 96.8675 59.546 96.8152 61.9009C98.171 63.2431 100.469 64.8849 102.007 66.127C108.159 71.095 113.255 78.2673 114.591 86.3889C116.82 99.939 109.24 115.464 101.585 126.268C99.1266 129.738 96.2684 133.699 91.762 134.364C86.0351 135.122 80.0391 131.312 75.6536 128.127C69.6913 128.728 64.1298 128.526 58.2283 127.493C56.5258 127.195 54.3499 126.566 52.651 126.126C52.4096 124.414 52.3567 121.676 52.1928 119.836C51.7075 114.395 51.5221 108.947 51.436 103.485C49.2191 105.33 47.0669 106.955 44.5796 108.411C39.2315 111.54 32.4803 114.498 26.6851 110.664C26.3454 109.947 25.6382 107.08 25.421 106.202C22.7068 95.2257 22.9197 84.2677 25.0872 73.2668C25.6282 72.9479 26.4021 72.711 27.008 72.512L27.9035 72.2492C27.158 70.851 26.4758 69.2655 25.7743 67.8262C24.6967 65.6265 23.6359 63.4186 22.5918 61.2028C20.984 57.8403 19.1104 55.4366 21.4891 51.9273C20.3652 51.1553 18.2929 49.7322 16.9008 49.8624C10.8424 50.4293 6.56844 46.2307 5.87909 40.3753C5.68541 38.7305 5.82266 37.4542 6.00741 35.7786C8.05409 37.2024 10.0259 38.766 12.0749 40.19C12.9768 40.8169 13.8746 41.4465 14.7587 42.0988C15.4147 41.4394 19.3692 37.3662 19.3685 36.8015C18.9805 36.0711 16.7027 34.6193 15.925 34.0717C14.1236 32.8125 12.3322 31.5391 10.5504 30.252C13.3359 29.1929 17.2261 27.7787 20.2603 28.4017C22.675 29.062 25.6771 31.5378 26.9305 33.6084C30.2179 39.0395 24.7919 41.5904 28.5927 47.5803C29.6063 47.2033 30.0178 47.0339 31.0838 47.3034C32.1056 46.5647 33.8092 45.5998 34.9506 46.6362C36.8563 48.3669 35.8801 51.7042 36.4083 53.8122C36.8366 55.5221 37.6101 56.5502 37.8172 58.4691C38.4578 58.9988 38.8199 59.4629 39.3145 60.1255C39.5592 61.5573 39.3796 62.6449 39.0104 64.0172C39.4906 64.854 40.3634 65.984 40.9305 66.8206C42.3686 68.9421 43.9048 71.0599 45.2278 73.2569C46.3164 71.9912 47.3017 70.5486 48.4467 69.286C52.6004 64.7057 57.0099 61.2126 63.1436 59.7518C65.3906 59.2165 67.566 58.9043 69.7836 58.3508C70.2689 58.2298 71.6713 57.5875 72.2286 57.3603C72.2904 57.0407 72.3222 56.7122 72.3605 56.3884C69.6698 56.2496 65.7741 55.1267 63.529 53.6605C59.9977 51.3545 61.0229 49.1262 62.9512 46.2832C62.8813 45.8799 62.8781 45.5807 62.8647 45.1761C63.1182 44.7388 63.3176 44.5962 63.5686 44.0785C64.1617 42.8549 63.4444 42.1174 63.8613 40.8297C64.0042 40.3878 64.6775 40.0108 64.7835 39.7252C65.0998 38.8725 65.35 38.0469 65.6961 37.1922C64.6377 36.4727 64.0397 35.5814 63.7002 34.3489C66.0142 32.0382 69.5661 28.8732 72.2587 26.9791C68.5426 24.5479 64.198 20.649 62.5936 16.3363C62.3435 15.664 62.2035 14.7468 62.5665 14.1067C62.8903 13.5357 63.5532 13.0931 64.175 12.9443C68.1623 11.9908 75.2536 15.4224 78.6046 17.345C79.084 16.8651 79.9995 16.2832 80.5965 15.9038C83.7693 13.8872 86.9261 12.5304 90.7204 12.2585Z" fill="#2046D2"></path><path d="M106.695 74.1377C106.988 74.1705 107.114 74.3206 107.292 74.5484C108.088 75.5678 108.693 76.8831 109.255 78.0509C111.871 83.4911 112.958 89.2949 112.159 95.3002C110.805 105.48 105.928 115.633 100.086 124.001C98.5701 126.172 96.8874 128.569 94.7619 130.176C93.1544 131.392 91.1491 132.069 89.1305 131.766C81.946 130.688 70.4382 117.216 66.1816 111.439C66.7707 107.888 70.347 100.776 73.5022 99.1277C74.7718 99.6879 76.2119 101.432 77.2218 102.435C81.8625 107.045 85.4581 112.08 89.1285 117.472C90.4605 119.571 91.9975 121.582 93.5005 123.558C92.9317 121.622 92.1136 119.457 91.3599 117.583C90.9053 116.452 90.3268 115.338 89.8569 114.163C92.237 114.834 94.7821 115.272 97.2135 115.928C96.5231 115.194 95.7548 114.685 94.9908 114.068C93.415 112.796 90.9193 111.082 89.5728 109.609C93.8557 107.495 96.7735 105.24 100.338 102.177C97.7558 103.232 95.1504 104.229 92.524 105.168C94.0273 101.211 99.2241 93.0598 101.976 89.8305C99.6812 90.8478 98.2965 92.0332 96.548 93.773C92.2356 98.0637 90.2287 103.031 87.8114 108.431C87.5456 101.47 88.7784 95.5835 91.9127 89.3412C92.7261 87.7216 93.6283 86.1351 94.6366 84.6273C97.2283 80.7514 102.286 75.5823 106.695 74.1377Z" fill="white"></path><path d="M77.4093 24.5312C79.7705 26.0271 82.1667 27.425 84.4686 29.0159C85.9366 30.0318 87.3979 31.0571 88.853 32.0915C89.8397 32.7961 90.8847 33.5888 91.914 34.2127C88.3077 37.6351 88.2024 39.7809 87.0877 44.3396C86.9311 44.9796 86.4752 46.1699 86.2296 46.8267C87.8094 45.6956 89.1471 45.3292 91.1091 45.1898C93.8821 44.8785 97.1537 47.2649 94.3014 49.8844C91.6655 52.3051 88.4262 52.1121 86.0567 49.5993C86.1236 50.1222 86.2105 50.6424 86.3174 51.1588C86.9382 54.0941 88.3891 56.1342 90.9042 57.7583C90.6176 59.718 90.219 61.1749 88.5873 62.4281C86.5901 63.9622 84.2222 64.7124 81.9557 65.7321C80.7326 66.2865 79.5441 66.914 78.3968 67.6117C77.1031 68.4147 76.3573 69.1455 75.3195 70.2131L75.2986 70.1085C74.1676 64.1833 79.9523 56.972 83.0588 52.4394C82.5801 52.6716 82.0653 52.8951 81.5784 53.1155C76.6026 55.5188 69.8157 54.3751 64.8787 52.3119C61.6808 50.9756 62.47 49.4081 63.6817 47.0109C64.5663 47.7297 65.168 48.2216 66.2933 48.5104C67.9741 48.9365 69.7551 48.6836 71.2509 47.8068C69.3258 47.8014 67.3837 47.8138 65.629 46.906C64.5532 46.3496 64.1613 45.7349 64.7656 44.6512C68.0497 46.4411 71.053 46.2954 74.6941 46.345C76.925 46.3754 78.3048 46.1439 80.1269 44.7495C77.0285 44.7915 75.3629 43.7614 73.5661 41.2578C73.9258 42.8424 74.618 44.4008 75.7514 45.5796C72.9278 44.5892 71.1212 42.1335 70.4999 39.2718C70.6146 39.1826 70.7263 39.0894 70.8345 38.9924C73.1097 36.9221 70.1043 34.7037 69.1276 35.651C69.5476 35.9537 70.2007 35.7216 70.8848 36.3734C71.6616 36.7986 71.3324 38.1748 70.4593 37.9084C68.7478 37.3866 66.2739 36.2676 65.1603 34.949C66.3854 33.6537 69.0031 31.4644 70.428 30.2876C72.4836 28.5902 75.2718 25.9823 77.4093 24.5312Z" fill="white"></path><path d="M76.6522 29.8408C77.9985 29.9606 79.2854 30.4504 80.3707 31.256C82.3422 32.6935 83.0531 34.8655 83.4287 37.1733C83.1047 36.8726 82.7252 36.5557 82.3882 36.2629C80.1913 34.6782 78.6965 34.2427 76.0449 33.9822C76.4799 33.2588 77.6881 31.6376 77.8556 30.9504C77.7231 30.4747 77.0778 30.1349 76.6522 29.8408Z" fill="#2046D2"></path><path d="M78.7344 27.75C80.7876 27.7977 82.0607 27.9503 83.5036 29.584C84.9837 31.2596 85.2615 33.5985 85.1343 35.7451C85.0152 35.6528 85.0083 35.6739 84.9589 35.5456C83.6957 32.264 81.2146 30.1796 78.7344 27.75Z" fill="#2046D2"></path><path d="M91.4191 47.0186C91.9704 47.0166 93.0447 47.2842 93.3765 47.745C93.1801 48.1566 91.4111 48.1434 90.9106 48.5481C90.6294 48.7752 90.7203 48.6422 90.6233 49.0955L90.5852 49.1818C90.527 49.1924 90.4689 49.2028 90.4107 49.2134C89.6874 48.8252 89.3757 48.5851 88.5801 48.3592C89.5555 47.5017 90.0985 47.1627 91.4191 47.0186Z" fill="#2046D2"></path><path d="M27.2517 75.8115C31.2248 76.2771 34.0569 76.4134 38.0911 75.8981C38.5805 76.6581 39.1953 77.4284 39.7199 78.2367C39.7507 78.7704 39.7527 79.327 39.7667 79.8641C39.9246 85.9364 40.7524 92.2057 39.1164 98.1559C38.7324 99.5522 38.1992 100.844 37.6482 102.178C40.2041 99.8627 40.7444 98.204 42.142 95.2346C42.2782 99.3441 42.1004 103.064 39.3452 106.444C39.6616 106.254 39.9646 106.043 40.2521 105.812C42.9276 103.65 44.0251 101.034 44.3951 97.6868C44.4554 96.9655 44.4567 95.8916 44.4803 95.1437C45.1957 95.9596 45.7894 96.6041 46.5522 97.3764C46.7152 99.4048 47.5819 99.9882 48.951 101.28C44.3438 105.743 37.693 110.764 30.8795 109.621C30.0094 109.476 29.3263 109.196 28.57 108.755C28.1371 107.491 27.565 104.389 27.2811 102.971C26.0389 96.769 25.4892 89.9101 25.992 83.6088C26.1974 81.0355 26.7518 78.3396 27.2517 75.8115Z" fill="white"></path><path d="M96.2579 16.7968C99.8905 16.6269 104.661 18.4815 105.92 22.1944C107.955 28.1991 105.163 34.512 102.625 39.9009C102.709 39.8186 102.792 39.734 102.871 39.6471C105.417 36.9099 107.539 32.1219 108.014 28.4303C108.156 27.3313 108.128 26.3717 108.081 25.2772C109.922 30.4598 109.484 35.0201 107.858 40.1603C106.78 43.4593 105.162 46.5567 103.071 49.3268C100.203 38.2909 97.5441 32.8376 89.0567 24.7064C87.9849 23.6797 86.7818 22.7327 85.709 21.7386C88.4805 18.7176 92.1838 17.0389 96.2579 16.7968Z" fill="white"></path><path d="M68.301 60.4307C68.3823 60.5951 68.3727 60.5529 68.2858 60.7415C66.8235 63.9169 65.0523 67.1653 65.0264 70.753C65.0149 72.3531 65.5108 74.0918 65.9353 75.6354C66.8348 73.1977 67.8046 70.9782 70.3074 69.8129C71.5918 72.5114 70.3715 78.0321 69.9651 80.9197C69.8338 81.8538 69.5938 82.7372 69.5474 83.7186C69.6363 83.4592 69.7358 83.2034 69.8456 82.9519C71.0719 80.113 75.2328 74.2558 78.0989 73.1149C80.2983 75.027 81.269 79.9395 81.6984 82.7933C83.0252 81.2078 85.2576 79.4821 86.7448 77.9715C90.028 74.6369 93.9528 69.6674 95.6953 65.3451L96.0248 64.6185C97.627 65.5115 99.9783 67.4903 101.365 68.6677C91.6352 73.5647 86.6199 81.027 82.4694 90.7784C75.6899 88.4463 67.8069 85.716 61.6094 82.0846C61.6331 80.5975 62.1571 78.3454 62.4624 76.9036C63.4854 72.073 64.8663 67.4321 67.029 62.9788C67.3663 62.2845 67.8641 61.0325 68.301 60.4307Z" fill="white"></path><path d="M54.0828 84.6248C56.3246 84.2612 59.7187 88.2589 61.1036 89.7813C62.9112 91.7656 64.6662 93.7973 66.3666 95.8742C67.3759 97.1199 68.3447 98.4304 69.3585 99.6936C68.267 100.751 67.6819 101.771 66.889 103.055C65.9 102.159 64.6939 100.99 63.534 100.333C63.0412 100.054 62.0286 99.9897 61.4122 99.9093C59.8745 99.7084 57.1672 99.0891 55.9008 98.1746C55.0563 98.6628 52.2269 100.732 51.5246 101.436C50.3617 100.652 49.7732 99.8333 50.942 98.7052C52.6028 97.1022 54.4115 96.0728 55.3822 93.8833C53.9759 94.72 52.4193 95.9473 51.1533 96.9747C50.388 97.6052 49.5271 98.2175 48.9883 99.0376C46.4533 96.7961 51.4163 94.0982 52.717 92.5734C53.4703 91.6906 53.8093 91.4137 54.345 90.3364C51.413 92.3086 49.9625 92.973 47.4196 95.6353C46.7931 95.0533 46.5519 94.8431 46.1636 94.0891C48.2989 89.6981 50.5172 89.9524 54.1102 87.0606C52.7293 87.5305 48.5998 88.939 47.6695 89.7415C46.8417 90.4555 46.1259 91.5918 45.4742 92.4722L45.3231 92.4365C44.3208 91.3517 45.5443 88.0139 46.3164 86.944C46.7362 86.337 47.388 86.0603 48.0813 85.8639C50.022 85.3143 52.0813 84.8695 54.0828 84.6248Z" fill="white"></path><path d="M29.922 48.7559C31.1302 48.7845 31.5075 49.4805 32.0037 50.4481C30.008 51.2556 28.0857 52.4541 26.2187 53.5231C25.5235 53.9211 24.0831 54.6391 24.0869 55.5294C24.1895 55.7661 24.1681 55.777 24.3849 55.9034C24.7648 55.8115 25.0464 55.4197 25.504 55.2101C26.8212 54.6042 28.132 53.9846 29.4361 53.3516C31.725 52.2384 33.3906 50.8077 34.6695 54.0502C32.2449 54.1835 29.8181 55.8682 27.6512 56.8744C27.1468 57.1085 26.3895 57.6029 26.1454 58.1083C26.1386 58.3919 26.1246 58.3942 26.2337 58.6689C26.4467 58.7285 27.3543 58.1894 27.6364 58.0788C29.3922 57.3902 32.686 55.8884 34.4093 55.5474L34.532 55.5235C35.8013 56.1261 35.8443 56.375 36.0483 57.7553C34.5639 57.8994 29.7432 59.5547 28.55 60.3544C28.3839 60.7112 28.2732 61.1288 28.1574 61.5087C29.4797 60.7666 32.2767 60.1095 33.8528 59.6736C34.6209 59.4524 35.5836 59.1144 36.3744 59.1873C38.5448 59.3874 38.1595 61.9713 37.9106 63.4775C37.4028 63.261 37.0445 63.1054 36.5631 62.8391C36.6657 62.5982 36.9079 62.1398 36.7927 61.9023C36.0222 61.661 32.5856 62.7569 31.552 63.0142C32.6365 64.8949 32.6346 65.9123 32.5633 68.0357C33.7138 69.5212 34.5388 70.6077 35.4869 72.2169C35.2888 72.9002 35.1265 73.469 34.8672 74.1355C33.4508 74.1518 31.5137 73.9642 30.0626 73.8705C29.815 73.1802 29.6773 72.4787 29.378 71.7742C28.7489 70.2936 28.0403 68.8512 27.3285 67.4101L23.8079 60.2433C22.2315 56.9715 20.1045 54.0406 24.4395 51.7569C26.1963 50.8312 28.0252 49.4657 29.922 48.7559Z" fill="white"></path><path d="M61.3449 62.2891L61.4227 62.3181C61.3695 62.9366 58.5983 69.5272 58.1809 70.6862C57.3681 72.8998 56.6847 75.1587 56.1343 77.4517C55.8897 78.4964 55.7525 79.8653 55.4558 80.8126C55.3075 81.2862 54.7327 82.3939 54.4828 83.0415C53.9017 83.0767 53.2195 83.2205 52.6368 83.3268C51.8108 82.3935 51.7679 81.2982 51.9949 80.1295C52.4648 77.7102 53.1277 75.1948 53.9829 72.8841C53.7428 73.1522 53.501 73.4523 53.2686 73.7299C51.6613 75.8491 50.8835 77.2256 49.5849 79.5561C48.6901 78.5316 47.1794 76.0783 46.3887 74.8646C50.9842 68.9597 54.0864 65.1521 61.3449 62.2891Z" fill="white"></path><path d="M93.083 59.6641C94.2299 60.2267 95.1545 61.9523 94.7466 63.1836C93.1669 67.9508 89.1105 72.0409 85.5947 75.4888C84.7623 76.3051 83.8151 77.2244 82.9347 77.8057C82.6108 76.8418 82.3195 75.9766 81.8948 75.0499C81.0215 73.3373 79.2563 70.9844 77.2422 70.62C78.0992 70.031 79.1164 69.6294 80.0457 69.1702C84.3302 67.053 89.6893 65.653 92.383 61.3787C92.6689 60.9248 92.9039 60.1833 93.083 59.6641Z" fill="white"></path><path d="M65.0286 14.399C65.9275 14.3361 66.8307 14.3877 67.7165 14.5529C70.48 15.0865 75.4268 17.4307 77.9155 18.7721C83.5883 21.8297 89.1987 26.6977 93.1582 31.7696C93.4654 32.163 94.9366 33.8508 95.0506 34.2362L94.9029 34.1958C93.8544 33.4273 91.6764 32.1258 90.7559 31.4462C89.0429 30.1815 86.224 28.2444 84.6588 27.2483C82.7562 26.0373 65.2087 15.6751 64.6504 14.6378L64.7013 14.5046L65.0286 14.399Z" fill="white"></path><path d="M19.1558 29.9484C21.6483 29.8572 24.6896 32.753 25.788 34.8434C25.9919 35.2315 26.172 35.6761 26.334 36.0853C25.736 36.6065 24.4572 38.0639 23.8806 38.6911C22.1417 40.6101 20.4157 42.5404 18.7027 44.4824C17.5159 45.8101 16.3449 47.1555 15.0208 48.3472C14.1253 48.2497 13.6197 48.0714 12.7721 47.759L12.041 47.4489C14.9311 44.3632 17.895 40.9721 20.7224 37.8032C21.1534 37.3202 20.8868 35.9067 20.4228 35.5466C18.334 33.9256 16.0099 32.3351 13.7732 30.9025C15.9066 30.3646 16.9634 30.0378 19.1558 29.9484Z" fill="white"></path><path d="M26.4051 37.5273C26.576 37.7361 25.9064 39.7808 25.8138 40.1489C25.0522 43.1762 25.6754 45.6435 27.1065 48.3001C25.5359 49.1451 24.3269 49.8899 22.8267 50.8633C22.0381 50.0957 21.1983 49.6313 20.2184 49.156C19.118 48.6226 17.9758 48.4128 16.7656 48.3534C17.6394 47.1705 18.8402 45.9646 19.8141 44.8598C21.9956 42.3848 24.2502 40.0271 26.4051 37.5273Z" fill="white"></path><path d="M34.6712 63.7441C34.8 63.7774 47.6124 82.709 48.7852 84.3744C48.3844 84.5356 47.9325 84.6916 47.5233 84.8426C47.2365 84.9263 46.8393 85.095 46.5517 85.2072C45.4837 83.5725 44.3062 82.0088 43.2291 80.383C41.647 77.9954 39.9922 75.6641 38.3361 73.3271C37.4458 72.0784 36.5634 70.8242 35.689 69.5642C35.3935 69.1398 34.1554 67.3987 34.0683 67.0115C33.9013 66.2682 33.8361 65.1866 33.6172 64.2609C33.9427 64.067 34.3246 63.9043 34.6712 63.7441Z" fill="white"></path><path d="M90.9213 14.1028C93.429 13.6608 98.4662 14.8782 100.606 16.3019C99.9774 16.1119 99.3437 15.9381 98.7056 15.7809C94.941 14.8757 91.3972 15.9173 88.1827 17.9033C86.5642 18.9585 85.8096 19.5291 84.4339 20.8763C83.409 20.0471 81.725 18.9809 80.5957 18.2206C83.7917 16.2665 87.1473 14.5401 90.9213 14.1028Z" fill="white"></path><path d="M102.489 70.0645C102.586 70.1091 103.184 70.8764 103.29 71.0072C102.567 71.4809 101.599 71.9163 100.834 72.3741C93.5216 76.7481 86.8897 86.0663 84.7155 94.2144C84.3977 94.2033 84.0564 94.2062 83.7363 94.203C84.0061 93.2511 84.1798 92.213 84.4446 91.2655C84.7935 90.0181 85.4004 88.6109 85.958 87.427C88.5246 81.978 92.4723 76.7618 97.3072 73.1299C99.2533 71.6681 100.487 71.2074 102.489 70.0645Z" fill="white"></path><path d="M56.4414 100.484C58.2458 101.249 60.117 101.601 62.0466 101.842C62.819 102.589 65.2523 104.602 65.7529 105.254C65.7257 105.492 65.7129 105.439 65.5371 105.661L65.441 105.663C65.0974 105.241 64.6314 104.934 64.1072 104.787C61.3718 104.002 59.681 106.966 61.1209 109.405C62.0409 110.67 63.2017 110.83 64.626 110.59L64.7661 111.633C63.9523 111.827 62.3737 112.131 61.7982 111.294C60.9474 110.057 60.3737 108.531 59.7202 107.167L56.4414 100.484Z" fill="white"></path><path d="M60.3984 83.8105C60.7265 83.8481 65.5891 86.465 66.358 86.8312C71.3196 89.1733 76.3978 91.2602 81.5726 93.0836L81.2722 93.89C80.2829 93.6035 79.2994 93.2968 78.3224 92.9704C73.8344 91.53 68.87 89.4459 64.6903 87.2533C63.4923 86.6248 61.9984 85.5663 60.8337 84.8169C60.7093 85.5401 60.6664 86.2755 60.6234 87.0067C59.8547 86.2261 58.8954 85.4259 58.0625 84.7076C59.0232 84.6313 59.5735 84.2603 60.3984 83.8105Z" fill="white"></path><path d="M71.7701 59.0508C71.953 59.2244 71.6283 60.4372 71.5585 60.7325C70.8409 63.7697 71.4434 65.4937 71.9876 68.3159C70.1503 67.4358 68.7673 68.0818 67.2942 69.2847L66.5215 70.0622C66.6082 69.1932 66.758 68.3317 66.9697 67.4844C67.5191 65.3359 68.9964 61.9018 70.3835 60.0935C70.7171 59.6585 71.2968 59.3326 71.7701 59.0508Z" fill="white"></path><path d="M7.51773 38.3486C7.84396 38.5358 8.24448 38.8136 8.5561 39.0332C10.3701 40.3117 12.2117 41.5616 13.919 42.9805L12.3303 44.8777C11.801 45.4896 11.3279 46.0375 10.7561 46.6141C8.47658 43.9767 7.50373 41.856 7.51773 38.3486Z" fill="white"></path><path d="M36.2494 62.8291C36.2559 62.8362 36.7004 63.5397 36.7544 63.6212L38.2708 65.8969L43.5506 73.7735C45.3847 76.5378 47.3496 79.2371 49.1307 82.034C49.4306 82.5051 50.2883 83.3036 50.1331 83.8424L49.7732 84.0299C49.6266 83.9545 36.4935 64.5575 35.8027 63.2644C35.8653 63.0498 36.0539 62.9651 36.2494 62.8291Z" fill="white"></path><path d="M67.2479 37.959C67.5 38.1242 67.8603 38.3021 68.1334 38.447C67.3142 41.4256 67.8325 43.3459 70.2375 45.2905C69.6201 45.1455 69.0719 44.983 68.4634 44.8005C67.4697 44.4565 65.3725 43.669 64.8647 42.6439C64.4165 41.6021 65.9008 41.0992 66.2864 40.365C66.678 39.6195 66.9589 38.7506 67.2479 37.959Z" fill="white"></path><path d="M42.0293 81.5957C43.129 82.9329 44.0238 84.3681 45.0295 85.7664L43.9455 89.1426C43.8 89.5671 43.6745 90.0051 43.5453 90.4355C43.095 88.6868 42.8809 87.8819 42.0245 86.2703C42.0856 84.6342 41.9956 83.1829 42.0293 81.5957Z" fill="white"></path><path d="M63.8405 61.1279L63.9411 61.1404L63.9987 61.2168C63.9062 61.5783 63.5259 62.3241 63.3555 62.7468C62.9384 63.7993 62.5374 64.8581 62.1524 65.923C61.3924 67.9968 60.6489 70.0766 59.9222 72.1623C58.9065 74.9866 58.1064 77.1248 57.2763 79.9957L57.258 80.0038L57.1914 79.9488C57.2589 78.8532 57.7996 76.7874 58.092 75.6898C59.2946 71.1762 61.1489 66.8103 62.8705 62.4736C63.1082 61.8751 63.2717 61.3599 63.8405 61.1279Z" fill="white"></path><path d="M63.1304 105.828C65.8139 105.71 65.5932 109.126 63.4956 109.576C62.7128 109.546 62.053 109.163 61.7577 108.417C61.5691 107.93 61.5883 107.386 61.811 106.914C62.1043 106.293 62.5066 106.037 63.1304 105.828Z" fill="white"></path><path d="M83.9677 96.0703C87.0365 96.8066 85.1646 101.057 82.6326 99.8316C82.004 99.5274 81.6622 98.7095 81.492 98.0617C81.4661 97.5717 81.7305 96.5977 82.1847 96.3793C82.7034 96.6322 82.6026 99.0542 83.4443 99.6619C84.3978 99.6169 84.0102 96.7414 83.9677 96.0703Z" fill="white"></path><path d="M33.1821 47.8419C33.5983 47.8161 33.9327 47.7735 34.2352 48.1233C34.9446 48.9437 35.0567 50.7362 35.0041 51.7692L34.9332 51.8301L34.752 51.6561C34.2542 51.1396 34.0687 51.0017 33.4368 50.7279C33.1741 49.5735 33.1035 49.3894 32.502 48.3346C32.7393 48.1154 32.9082 48.0184 33.1821 47.8419Z" fill="white"></path><path d="M57.8323 80.9264C58.2648 80.8984 59.3037 80.9472 59.5358 81.3554C59.0713 81.5599 58.2264 81.2872 57.6753 81.7568C57.1923 82.1683 57.0503 82.773 56.9944 83.3634L57.1352 83.7231L57.0845 83.8271C56.7766 83.7845 56.1844 83.368 55.8848 83.18C56.2067 81.8986 56.4457 81.2296 57.8323 80.9264Z" fill="white"></path><path d="M54.5482 100.599C54.7974 100.884 55.1865 101.834 55.3591 102.233C54.6665 102.462 54.4381 102.471 53.7365 102.412C53.3963 102.273 53.0915 102.095 52.7695 101.918C53.3782 101.443 53.9074 101.037 54.5482 100.599Z" fill="white"></path><path d="M36.4244 73.4297C36.6272 73.5829 36.8729 73.851 36.9117 74.1118L36.787 74.221C36.479 74.2058 36.3561 74.2403 36.1502 74.0759C36.1302 73.8261 36.2845 73.6546 36.4244 73.4297Z" fill="white"></path><path d="M66.9541 0.0378196C73.1435 -0.170963 79.3316 0.485454 85.3396 1.98806C89.0585 2.93525 92.5756 4.06458 96.1104 5.55746C111.801 12.1838 125.158 25.4678 132.067 40.8774C138.418 55.2307 139.714 71.3133 135.744 86.4983C132.607 98.7507 125.142 110.634 115.753 119.063C111.431 122.943 107.08 125.912 102.104 128.862C105.631 124.399 108.327 119.64 110.958 114.637C111.146 114.28 111.343 114.319 111.608 114.13C112.87 113.226 113.913 111.9 114.962 110.755C120.741 104.542 125.666 96.7543 128.216 88.6138C130.692 81.0287 131.736 74.6442 131.5 66.6177C131.061 53.0524 126.134 40.0162 117.49 29.5523C116.186 27.9856 114.807 26.4834 113.357 25.0508C112.23 23.9533 110.97 23.0938 110.249 21.672C109.187 19.5765 107.711 17.7252 106.005 16.1225C102.572 12.831 98.1137 10.8162 93.3743 10.4145C92.4505 10.3327 89.8997 10.514 89.301 10.2981C81.9359 7.64205 74.6999 6.44464 66.8288 6.70396C52.4749 7.30398 38.7847 12.9137 28.137 22.5584C26.2991 24.2014 24.7836 25.8564 23.1023 27.6496C20.698 26.0921 18.135 26.1785 15.4375 26.7162C16.2622 25.4155 18.8447 22.3699 19.9321 21.2054C32.1868 8.20423 49.0963 0.592245 66.9541 0.0378196Z" fill="#2046D2"></path><path d="M5.05196 44.5771C5.35722 45.0357 5.68194 45.7503 6.01777 46.2635C7.11344 47.9382 8.28932 49.2208 10.0245 50.2006C6.97532 60.024 6.06307 69.4546 7.94078 79.645C10.5593 94.0569 18.1804 107.082 29.4613 116.426C42.2111 126.782 58.725 132.203 75.1461 130.485C75.8362 130.834 77.2344 131.772 77.9828 132.229C80.6783 133.875 82.4695 134.692 85.4515 135.663C84.7768 135.878 83.6374 136.072 82.9135 136.218C72.4821 138.219 61.734 137.845 51.4667 135.124C45.6414 133.546 39.848 131.084 34.6621 128.02C22.1007 120.638 12.191 109.478 6.34654 96.1315C-0.966654 79.8123 -1.43293 61.2427 5.05196 44.5771Z" fill="#4A6BE5"></path><path d="M112.425 27.334C112.502 27.3746 112.611 27.4292 112.675 27.4884C115.991 30.5129 118.549 34.3957 121.009 38.1196C121.719 39.1954 122.339 40.5534 122.929 41.6859C125.936 47.4622 128.043 53.7998 128.87 60.2671C130.999 75.8438 126.994 92.1806 117.262 104.692C116.154 106.132 114.632 108.008 113.383 109.33C113.712 108.247 114.106 107.142 114.443 106.044C116.347 99.8465 117.774 93.0644 116.783 86.5778C116.611 85.4562 116.347 83.7766 115.887 82.7706C116.586 79.8507 117.245 76.9821 117.609 73.9922C118.582 65.5949 117.376 57.0888 114.107 49.293C113.141 46.9996 111.943 44.9893 110.834 42.7864C112.744 37.4899 113.559 32.955 112.425 27.334Z" fill="#9EE690"></path><path d="M67.8846 8.88715C70.2579 8.66335 73.0623 8.93637 75.4239 9.15908C79.0431 9.50054 82.6152 10.4254 86.142 11.3017C83.6491 11.9666 80.531 13.5877 78.4147 15.0562C75.5342 13.6848 72.5687 12.4548 69.4836 11.4147C66.7558 10.4951 61.6923 10.3543 60.6684 13.8946C59.9349 16.4308 61.6965 18.9251 62.9623 21.0334C61.8644 21.1395 60.2602 21.4701 59.1851 21.7146C51.7714 23.4759 44.8359 26.8468 38.8705 31.5882C38.6032 31.788 38.3462 32.0232 38.0967 32.2434C35.2211 34.7816 32.5359 37.4705 30.1787 40.5047C29.8005 40.9917 29.4383 41.4877 29.0351 41.9602C29.5155 40.2563 30.0541 38.183 29.9254 36.4271C29.7151 33.5585 27.2895 30.7264 25.1523 28.9549C25.4441 28.5726 25.781 28.1884 26.106 27.8335C34.6897 18.4409 46.1049 12.107 58.6169 9.79447C62.0805 9.1697 64.4289 9.03896 67.8846 8.88715Z" fill="#9EE690"></path><path d="M11.9541 51.3271C13.972 51.8656 15.3478 51.7154 17.3484 51.8426C17.7769 51.8698 18.57 52.37 18.9573 52.6035C17.7756 56.1162 18.8959 58.691 20.5921 61.8124C20.5002 63.1144 20.3548 64.4467 20.2936 65.743C20.151 68.8678 20.2917 71.9991 20.7143 75.0985C20.9588 76.7918 21.3001 78.4098 21.7349 80.0645C22.0489 81.2583 21.7986 82.8434 21.7131 84.0932C21.6256 85.5204 21.5741 86.9498 21.5584 88.3796C21.4915 95.8888 22.0816 100.686 23.8895 107.926L23.1245 107.094C22.0452 105.762 21.0371 104.322 20.036 102.928C19.459 102.03 18.6214 101.097 18.127 100.162C16.9215 97.8819 15.4127 95.3895 14.3694 93.0396C10.1483 83.5214 8.50633 73.0599 9.609 62.7062C10.1049 58.4496 10.903 55.4762 11.9541 51.3271Z" fill="#9EE690"></path><path d="M44.7204 110.279C45.0391 110.462 45.3781 110.697 45.6785 110.91C47.0682 111.895 48.5349 112.709 50.0139 113.551C50.0318 114.935 50.1548 116.368 50.2256 117.754L50.6026 125.443C49.1157 124.893 47.5931 124.46 46.1298 123.834C44.1149 122.973 42.1533 122.079 40.2242 121.039C39.8265 120.831 39.4109 120.589 39.0327 120.344C36.4448 118.672 33.7453 117.145 31.3809 115.155C30.9025 114.752 30.3859 114.365 29.8906 113.984C34.7852 115.256 40.6601 113.072 44.7204 110.279Z" fill="#C4D6A8"></path><path d="M11.6231 33.1104C13.4092 34.4687 15.2396 35.7673 17.1118 37.0041C16.3403 37.8479 15.6029 38.7432 14.8665 39.6196L14.705 39.7405C14.2068 39.5953 10.207 36.6585 9.62695 36.2052C10.3526 35.192 10.9479 34.1563 11.6231 33.1104Z" fill="#2046D2"></path></svg> 