<?xml version="1.0" encoding="utf-8"?>
<!-- Generator: Adobe Illustrator 27.2.0, SVG Export Plug-In . SVG Version: 6.00 Build 0)  -->
<svg version="1.1" id="Слой_1" xmlns="http://www.w3.org/2000/svg" xmlns:xlink="http://www.w3.org/1999/xlink" x="0px" y="0px"
	 viewBox="0 0 451 138" style="enable-background:new 0 0 451 138;" xml:space="preserve">
<style type="text/css">
	.st0{fill:#203144;}
	.st1{fill:#046DB9;}
</style>
<g>
	<g>
		<path class="st0" d="M143.2,94.6c0-0.8-0.5-1.4,0.1-1.9c0.2-0.1-0.1-0.4-0.3-0.5c-1.3-1.3-2.2-2.9-3-4.5c-0.8-1.4-1.6-2.8-3.2-3.6
			c-0.8-0.4-0.9-0.8-0.1-1.5c0.6,0.9,1.4,1.5,2.6,1.6c0.3,0,0.4,0.2,0.5,0.5c1.2,2.6,2.7,5,4.4,7.3c0.3,0.3,0.4,0.7,0.1,1
			c-0.4,0.4-0.2,0.9,0.1,1.2c0.8,1,1.1,2.3,1.5,3.5c0.8,2.8-1.7,5.9-3.6,6.8c-4.1,1.8-8.1,0.3-10.4-3.1c-0.8-1.2-1.8-1-2.8-1.3
			c-0.3-0.1-0.3,0.3-0.3,0.5c-0.1,1.5,0.1,3,0.3,4.4c0.2,1.6-0.6,2.8-2.3,2.9c-1.4,0-2.8,0-4.2,0c1.4-2.4,2.6-5,3.9-7.4
			c0.2-0.5,0.4-0.8-0.3-1.1c-0.7-0.4-0.8,0.1-1,0.5c-1.2,2.1-2.4,4.3-3.3,6.6c-0.5,1.3-2,1.7-3.3,1c-0.2-0.1-0.4-0.2-0.6-0.3
			c-1.2-0.6-1.5-1.7-0.8-2.7c1.3-2,2.4-4.1,3.5-6.3c0.2-0.4,0.6-0.7,0.8-1.1c0.1-0.2,0.5-0.5,0.2-0.7c-0.3-0.2-0.6-0.5-0.9-0.5
			c-0.3,0-0.4,0.4-0.6,0.8c-0.3,0.8-0.8,1.4-1.2,2.1c-0.7,1.4-1.8,2.7-2.4,4.3c-0.2,0.5-0.8,1.1-1.6,1.1c-0.3,0-0.6,0.1-0.8,0.2
			c-0.9,0.5-1.7,0.4-2.7,0.3c-1.7-0.1-3.4-0.1-5.1-0.1c-0.3,0-0.6,0-0.9,0c-0.8,0-1.5,0.3-1.9,1c-0.4,0.8-1,0.9-1.8,0.8
			c-0.5,0-0.9,0-1.4,0c0.9-1.1,1.2-2.5,1.8-3.6c0.9-1.8,1.5-3.7,1.4-5.6c0-1.3,0.1-2.6,0.1-3.9c-0.1-2.4,0.2-4.7-0.2-7.1
			c-0.2-1.2-0.5-2.4-1-3.6c-0.7-1.7-1.2-3.5-2.3-5c-0.1-0.2-0.3-0.4-0.4-0.6c-1.1-2-2.6-0.8-3.9-0.4C94,77,92.3,77.7,90.9,79
			c-0.4-0.6,0-0.9,0.3-1.2c1.5-1.4,3.4-2,5.2-2.7c2.3-0.8,4.6-1.4,6.9-2.1c0.7-0.2,0.9-0.8,1-1.3c0.3-1,0.6-1.9,1.8-2.1
			c0.7-0.1,0.2-0.6,0.3-0.9c0.5-1.2,0.1-2.1-0.9-2.8c-0.2-0.2-0.5-0.4-0.6-0.6c-0.6-1.5-1.8-2.5-2.6-3.8c-1.1-1.6-1.2-4.6,0.3-6.5
			c0.8-1.1,2-1.8,2.9-2.8c2.8-3,6.2-2.5,9.6-2.1c1.1,0.1,2.1,0.9,3,1.6c0.4,0.4,0.8,0.4,1.3,0.2c1.3-0.4,2.6-0.9,3.9-1.2
			c0.3-0.1,0.7-0.1,1-0.1c0.7,0,1.5-0.1,1.9,0.7c0.4,0.8,0.3,1.6-0.1,2.4c-0.6,1.3-1.7,2-3,2.4c-0.4,0.1-1.1,0.2-1.1,0.7
			c0,0.6,0.1,1.4,0.5,1.9c0.4,0.6,0.9,1.1,1.5,1.5c0.8,0.5,0.8,1.4,0,1.9c-0.5,0.3-0.7,0.6-0.5,1.3c0.2,0.8,0.4,1.7,0.2,2.4
			c-0.2,0.8,0.7,0.6,0.7,1.3c-0.1,1.2-0.5,1.9-1.6,2.3c-0.6,0.2-1.2,0.5-1.9,0.5c-0.5,0-0.9,0.3-1.3,0.6c-0.6,0.6-0.6,1.2,0.1,1.8
			c0.1,0.1,0.3,0.2,0.4,0.3c0.8,1.8,2.6,1.6,4,2c2.4,0.7,4.9,1.3,7.1,2.7c0.1,0,0.1,0.1,0.2,0.1c0.4,0.3,0.5,1.4,1.2,0.8
			c0.4-0.3,0.9-0.7,1-1.4c0-0.3,0.2-0.5,0.4-0.7c0.6-1,0.7-1.1-0.4-1.6c-0.5-0.3-0.6-0.5-0.3-0.9c0.1-0.2,0.2-0.4,0.3-0.6
			c0.3-0.6,0.6-1,1.4-0.6c1.6,0.7,3.2,1.5,4.9,2c0.5,0.2,0.8,0.1,1-0.4c0.3-0.8,0.9-1.4,0.9-2.3c0-0.4,0.4-0.3,0.5-0.5
			c0.6-0.9,0.6-1.3-0.4-1.7c-1.8-0.8-3.6-1.8-5.6-2.4c-0.6-0.2-0.7-0.9-0.3-1.6c0.3-0.4,0.6-0.9,0.8-1.4c0.3-0.8,0.8-0.8,1.5-0.5
			c1.5,0.7,3.1,1.3,4.7,1.9c0.1,0,0.3,0.2,0.3,0.1c1-1,1.7,0.1,2.5,0.3c1,0.2,2,0.8,2.9,1.5c0.3,0.3,0.2,1.7-0.2,2.3
			c-0.9,1.6-1.9,3.1-2.3,4.8c0,0.1,0,0.2-0.1,0.3c-1.4,1.1-1.6,2.9-2.6,4.3c-0.7,1-1.4,2-2,3c-0.5,0.8-1.5,0.9-2.4,0.7
			c-1-0.3-1.3-1.4-0.7-2.5c0.1-0.2,0.2-0.4,0.3-0.6c0.2-0.4,0.6-0.9,0.1-1.2c-0.5-0.3-1.1-0.2-1.5,0.4c-0.5,0.6-0.9,1.3-1.2,1.9
			c-1,2.2-2.4,4.2-3.5,6.4c-0.3,0.6-0.8,1.3,0,2c0.2,0.2,0,0.3-0.1,0.5c-0.2,0.2-0.4,0.1-0.6,0c-1.1-0.9-2.5-1.2-3.7-1.8
			c-0.7-0.4-1.5-0.6-2.3-0.7c-0.5,0-0.7,0.2-0.9,0.6c-0.2,0.4,0.1,0.6,0.4,0.8c0.8,0.6,1.6,0.9,2.5,1.2c0.3,0.1,0.6,0.1,0.5,0.5
			c-0.1,0.3-0.3,0.6-0.8,0.4c-0.8-0.4-1.7-0.7-2.6-1.1c-0.4-0.2-0.8-0.2-1.2-0.1c-0.6,0.3-0.5,1.1,0.2,1.4c0.8,0.4,1.6,0.8,2.5,1.2
			c0.2,0.1,0.5,0.3,0.3,0.7c-0.2,0.4-0.5,0.2-0.7,0.1c-0.8-0.4-1.6-0.7-2.4-1.1c-0.5-0.3-0.9-0.1-1.1,0.3c-0.3,0.5,0,0.8,0.4,1
			c0.8,0.4,1.5,0.8,2.3,1.1c0.4,0.2,0.6,0.4,0.4,0.8c-0.2,0.5-0.5,0-0.7-0.1c-0.7-0.3-1.3-0.6-1.9-0.9c-0.3-0.2-0.8-0.3-1,0.2
			c-0.2,0.4-0.1,0.8,0.3,1.1c0.6,0.4,1.2,0.8,1.8,1c0.7,0.2,1.1,0.6,1.5,1c1.3,1.4,3.1,1.7,4.9,1.8c0.8,0.1,1.3,0.3,1.8,0.9
			c1,1.3,2.1,2.5,3.5,3.3c1.4,0.9,3,1.3,4.7,0.6c0.7-0.3,1.5-0.6,2.1-1c1.9-1.2,3-4,1.8-6.1c-0.9-1.6-2.5-2.7-4.4-3.2
			c-1-0.3-2-0.3-3,0.3c-0.9,0.6-2.9-0.6-3-1.7c-0.1-1.3,0.3-2.6-0.5-3.8c-0.2-0.2,0.1-0.6,0.3-0.7c0.3-0.2,0.4,0.2,0.5,0.4
			c0.6,1,0.8,2.1,0.8,3.2c0,1.5,0.6,1.9,1.9,1.1c1.1-0.6,2.3-0.5,3.6-0.3c0.1,0,0.4,0,0.3,0.2c-0.7,0.8,0.3,0.6,0.5,0.8
			C141.9,93.7,142.6,93.9,143.2,94.6z M113.3,77.5c0,0.1,0,0.2,0.1,0.1c0,0,0-0.1,0-0.2c-0.3-1-1.1-1.4-2-1.9
			c-2-1.3-4.1-2.3-5.5-4.4c-0.1,0.2-0.1,0.3-0.2,0.5c-1.3,1.8-1.1,2.1,0,3.1c0.1,0.1,0.1,0.2,0.2,0.3c0.8,1.2,1.6,2.3,2.3,3.5
			c0.4,0.6,0.7,0.9,1.2,0.2c0.5-0.6,1.1-1.1,1.6-1.6c0.5-0.5,1.1-0.7,1.6,0.1C112.9,77.2,113.1,77.3,113.3,77.5z M112.6,66.7
			c0.7,0.8,1.7,1.1,2.7,1.5c0.9,0.3,1.8,0.3,2.8,0.4c1.2,0.2,2.5,0.2,3.7-0.1c1.3-0.3,1.5-1,0.9-2.1c-0.2-0.3-0.4-0.5-0.1-1
			c0.3-0.4,0.1-0.8-0.5-0.7c-0.4,0.1-0.7,0.2-1.1,0.3c-0.3,0.1-0.6,0.2-0.7-0.1c-0.1-0.4,0.3-0.4,0.6-0.5c0.4-0.2,0.8-0.3,1.1-0.4
			c0.3-0.1,0.7-0.3,0.5-0.6c-0.1-0.3,0-0.8-0.6-0.7c-0.2,0-0.4,0.1-0.4-0.2c0-0.3,0.2-0.4,0.4-0.5c0.4-0.1,0.8-0.2,1.2-0.3
			c0.6-0.2,0.7-0.5,0.2-0.9c-0.8-0.7-1.5-1.5-2.3-2.2c-0.2-0.2-0.4-0.3-0.3-0.5c0.4-0.7-0.1-1.2-0.4-1.8c-0.2-0.4-0.3-0.5-0.8-0.3
			c-2,0.8-4,1.6-6.2,1.8c-0.1,0-0.4,0-0.4,0.2c0.4,1-0.4,1.9-0.3,2.8c0.1,0.8-0.4,1-0.9,1.1c-0.5,0.1-0.8-0.1-1.2-0.4
			c-0.6-0.6-1.5-0.7-2.3-0.4c-0.6,0.3-0.9,0.8-0.8,1.5c0.1,1.3,2.3,2.9,3.5,2.6c0.2,0,0.3-0.2,0.4,0c0.1,0.2,0,0.4-0.1,0.5
			c-0.1,0.1-0.3,0.2-0.5,0.2c-0.5,0.1-1-0.3-1.4-0.2c-0.4,0.1-0.2,1-0.8,1.2c-0.2,0.1-0.3,0.2-0.5,0.3c-0.2,0.1-0.2,0.2-0.2,0.4
			c0,1-0.2,2-0.4,3c-0.1,0.5,0,0.9,0.4,1.2c1.3,0.8,2.5,1.9,3.9,2.6c0.7,0.4,1.8,0.6,2.1,1.5c0.5,1.4,1.7,2.3,2.3,3.7
			c0.4-1.6,0.8-3.1,1.2-4.7c-0.2,0-0.3-0.1-0.4,0c-0.8,0.1-1.1-0.1-0.7-1c0.3-0.6,0.4-1.3,0.7-1.9c0.2-0.5,0.3-0.9-0.4-1.2
			C114.6,70.1,112.9,69.1,112.6,66.7z M102.4,74.3c1.7,1.9,2.8,4,3.8,6.2c0.5,1.1,0.9,2.2,1.2,3.3c0.2,0.5,0.4,0.6,0.9,0.7
			c2.2,0.1,4.4-0.4,6.6-0.2c0.3,0,0.5,0,0.8,0c0.5,0.1,0.6-0.2,0.5-0.6c-0.2-1-0.4-2-0.6-3c-0.1-0.4-0.3-0.8-0.7-1
			c-1-0.4-1.8-1.1-2.6-1.6c-0.4-0.3-0.7-0.3-1,0.1c-0.6,0.7-1.3,1.4-2,2c-0.4,0.4-0.7,0.5-1-0.1c-1-1.7-2-3.4-3.2-4.9
			C104,73.9,104.1,73.8,102.4,74.3z M124.9,76c0,0.7,0.4,1.2,0.6,1.8c0.8,2.7,1.3,5.4,1.7,8.2c0.1,0.4,0.3,0.4,0.5,0.5
			c0.2,0.1,0.4,0.1,0.4-0.1c0.7-2.1,2.4-3.6,3.1-5.7c0.1-0.5,0.8-0.8,0.4-1.4c-0.3-0.4-0.8-0.8-1.2-1.2
			C128.7,77,126.9,76.3,124.9,76z M120,84.4C120,84.4,120,84.4,120,84.4c0.7,0,1.3,0,2,0c0.6,0,1-0.2,0.9-0.9
			c-0.1-0.9-0.3-1.7-0.3-2.6c0.1-1.1-0.6-1.4-1.2-1.9c-1.7-1.3-1.7-1.3-3.2,0.2c-0.3,0.3-0.7,0.5-1,0.8c-0.2,0.2-0.3,0.4-0.3,0.7
			c0.1,0.8,0.3,1.5,0.3,2.3c0,1.3,0.7,1.4,1.7,1.3C119.2,84.4,119.6,84.4,120,84.4z M121.2,89.6c-0.2-0.3-0.4-0.2-0.6-0.2
			c-4.1,0-8.3,0-12.4,0c-0.3,0-0.5-0.1-0.5,0.4c0,0.4,0.2,0.7,0.6,0.7c0.9,0,1.9,0.1,2.8,0.2c2.3,0.1,4.6,0.1,6.8,0
			C119.1,90.6,120.3,90.6,121.2,89.6z M121.2,77.5c-0.2-1.4-0.8-2.5-1.3-3.6c-0.1-0.3-0.3-0.5-0.6-0.7c-0.2-0.2-0.4-0.2-0.5,0.2
			c-0.3,1.6-0.7,3.2-1.3,4.7c0.3,0.1,0.4-0.1,0.5-0.2c0.4-0.5,0.8-1.3,1.3-1.5C120,76.1,120.4,77.2,121.2,77.5z M106.1,86.4
			c-0.5,0-1.1,0-1.1,0.7c0,0.5,0.5,0.9,1,0.8c0.4-0.1,1.1,0,1.1-0.8C107.1,86.4,106.6,86.3,106.1,86.4z M120,105.5
			c0.5,0.1,0.7-0.1,0.7-0.6c0-0.4-0.2-0.7-0.7-0.7c-0.5,0-0.8,0.3-0.8,0.7C119.3,105.4,119.6,105.6,120,105.5z M123.8,86.2
			c-0.6-0.1-1,0.1-1,0.7c0,0.4,0.4,0.8,0.6,0.7c0.4-0.3,0.9-0.6,1-1.1C124.4,86,123.9,86.3,123.8,86.2z"/>
		<path class="st0" d="M113.9,23.2c-1.3,1.5-2.8,2.3-3.9,3.6c-1.2,1.6-3,1.8-4.7,2.1c-1.2,0.2-2.5,0.5-3.7,1
			c-1.6,0.6-3.2,1.2-4.8,1.9c-1.5,0.7-2.9,1.5-4.2,2.3c-3,1.8-5.7,4.1-8.2,6.5c-2.8,2.7-5.2,5.8-7.1,9.1c-1.7,2.9-3.3,6-4.2,9.4
			c-0.7,2.4-1.5,4.8-1.8,7.3c-0.2,2.3-0.6,4.6-0.1,6.9c0.1,0.4,0,0.9,0,1.4c0.1,1.8,0.3,3.6,0.9,5.4c0.5,1.7,0.8,3.5,1.4,5.3
			c0.9,2.7,2.2,5.1,3.7,7.6c1.1,1.8,2.3,3.6,3.7,5.1c2.6,2.8,5.6,5.4,9,7.4c2.4,1.4,5,2.5,7.7,3.2c1.6,0.4,3.2,0.6,4.8,0.7
			c0.5,0,0.6,0.1,0.6,0.6c0,1.2,0,2.4,0,3.6c0,0.3,0,0.5-0.4,0.5c-1.7,0-3.4-0.2-5.1-0.7c-1.3-0.4-2.5-0.7-3.8-1.2
			c-2.8-1.1-5.5-2.4-8-4.1c-2.6-1.8-5.1-3.8-7.2-6.1c-1-1-1.8-2.2-2.7-3.2c-1.4-1.6-2.3-3.4-3.4-5.2c-1.3-2.1-2-4.4-3.1-6.6
			c-1-2.1-1.4-4.3-1.9-6.5c-0.4-1.6-0.5-3.4-0.7-5.1c-0.2-1.9-0.2-3.8-0.2-5.7c0-2.7,0.4-5.3,0.9-8c0.8-4.1,2.3-7.8,4.1-11.5
			c1.7-3.4,3.8-6.6,6.2-9.6c1.8-2.2,3.8-4.2,6-6c4.6-3.9,9.8-7,15.5-9.1c3.6-1.3,7.3-2.1,11.1-2.6C111.4,23.2,112.5,23.2,113.9,23.2
			z"/>
		<path class="st0" d="M122,20.1c1.4,2.2,2.8,4.2,4.6,5.9c2.1,2.1,4.5,4,6.7,6c0.3,0.3,0.6,0.6,1,0.9c2.4,2.2,4.9,4.3,7.3,6.5
			c2.4,2,4.7,4.1,7.1,6.1c1.9,1.6,3.7,3.4,5.5,5c0.7,0.6,1.4,1.2,2,1.8c0.1,0.1,0.3,0.2,0.2,0.5c-0.1,0.2-0.3,0.1-0.5,0.1
			c-1.2,0-2.5,0-3.7,0c-0.6,0-1-0.4-1.4-0.8c-1.7-1.5-3.3-3-5-4.4c-3.1-2.6-6.1-5.3-9.2-7.9c-1.9-1.7-3.8-3.4-5.8-5
			c-3.1-2.7-6.2-5.3-9.2-8.1c-0.5-0.4-0.8-0.2-1.1,0.1c-1.7,1.4-3.3,2.9-5,4.3c-3.2,2.8-6.5,5.6-9.7,8.4c-2.8,2.4-5.6,4.7-8.3,7.1
			c-2.2,1.9-4.4,3.8-6.7,5.7c-2,1.7-3.9,3.3-5.9,4.9c0.5,0.4,1,0.2,1.5,0.2c0.7,0,0.8,0.2,0.8,0.8c0,5.6,0,11.1,0,16.7
			c0,1.8-0.1,3.6,0,5.4c0.2,2.6-0.4,5-1,7.5c-0.2,0.9-0.7,1.7-1.1,2.6c-0.4,0.8-0.1,0.8,0.6,0.8c1.2,0,2.5-0.2,3.7,0.5
			c-0.8,0.3-1.5,0.5-2.3,0.7c-1,0.2-2.1,0.3-2.5,1.5c-0.2,0.6-0.1,0.8,0.4,1.1c2.1,1.2,4.3,2,6.6,2.7c0.4,0.1,0.9,0.2,1,0.7
			c0.1,0.4-0.4,0.6-0.5,0.8c-0.1,0.2-0.3,0.2-0.3,0c0-0.8-0.8-0.8-1.2-0.9c-1.6-0.3-3-0.8-4.4-1.5c-0.6-0.3-1.3-0.5-1.6,0.4
			c-0.1,0.3-0.3,0.2-0.4,0.2c-0.3-0.2-0.7-0.4-0.7-0.8c0-1.2-0.5-2.5,0.4-3.6c0.2-0.3,0.3-0.6-0.1-0.9c-0.3-0.3-0.2-0.8-0.2-1.3
			c0-9.8,0-19.5,0-29.3c0-0.8-0.2-1-1-1c-2.1,0-4.2,0-6.5,0c0.5-0.8,1.1-1.3,1.6-1.7c1.4-1.1,2.6-2.5,4-3.7c1.3-1.1,2.7-2.2,3.9-3.4
			c1.1-1.1,2.4-2,3.6-3.1c1.3-1.1,2.6-2.2,3.9-3.3c1-0.8,1.9-1.6,2.8-2.4c1.1-1,2.2-2,3.4-2.9c1.3-0.9,2.4-2,3.5-2.9
			c2.3-1.9,4.5-3.8,6.7-5.8c3.7-3.3,7.6-6.4,11-10C121.1,21,121.5,20.7,122,20.1z"/>
		<path class="st0" d="M200.1,68c-3.2-0.2-5.6-0.2-8.1-0.6c-0.3,0-0.6,0-0.9,0c-1,0-1.5-0.5-1.5-1.5c0-0.7,0-1.3,0-2
			c0-0.6,0.2-0.9,0.9-0.9c1.5,0.2,2.9,0.3,4.4,0.5c2.8,0.3,5.7,0.5,8.5-0.1c1.7-0.4,2.4-1.6,2.2-3.5c-0.2-1.6-1.2-2.5-3.1-2.7
			c-2.8-0.3-5.6-0.6-8.4-1.3c-2.6-0.6-4.6-3.2-4.7-5.9c0-1.2,0-2.3,0.4-3.4c0.8-2.6,2.7-3.9,5.1-4.4c3-0.6,6.1-0.4,9.1-0.1
			c1.2,0.1,2.5,0,3.8,0.2c0.4,0.1,0.6,0.2,0.6,0.6c0,0.9,0,1.9,0,2.8c0,0.6-0.3,0.8-0.9,0.8c-2.1-0.2-4.2-0.5-6.4-0.4
			c-1.5,0.1-2.9-0.1-4.4,0.2c-0.8,0.1-1.4,0.5-1.8,1.1c-1,1.9-0.6,4.3,2.2,4.8c2.6,0.4,5.2,0.6,7.7,1.2c2.4,0.5,4.6,1.7,5.4,4.3
			c0.7,2.3,0.8,4.7-0.6,6.8c-1.3,1.9-3.3,3-5.6,3.2C202.6,67.7,201,68.2,200.1,68z"/>
		<path class="st1" d="M227.1,93c0-1.6,0.1-3.3,0-4.9c-0.1-2.5,2-4.6,4-5.2c2.5-0.7,5.1-1.1,7.3-0.2c2.2,0.9,3.9-0.1,5.9-0.3
			c2.8-0.2,5.6-0.5,7.9,1.9c0.9,1,1.3,2.1,1.3,3.3c0.1,3.7,0.1,7.3,0.1,11c0,0.6-0.3,0.9-0.9,0.9c-0.9,0-1.8,0-2.7,0
			c-0.8,0-1.2-0.3-1.2-1.2c0-3.2,0-6.3,0-9.5c0-2-0.8-2.7-2.8-2.8c-1,0-2.1,0.1-3.1,0.4c-0.4,0.1-0.5,0.2-0.4,0.6
			c0.3,3.8,0.1,7.7,0.1,11.6c0,0.6-0.4,0.9-1,0.9c-0.8,0-1.5,0-2.3,0c-1,0-1.3-0.3-1.3-1.3c0-3,0-6.1,0-9.1c0-0.3,0-0.6,0-0.9
			c-0.2-1.4-0.6-2-2.4-2.2c-0.5-0.1-1,0-1.5,0c-1.6,0-2.3,0.6-2.3,2.2c0,3.2,0,6.3,0,9.5c0,1.6-0.1,1.7-1.7,1.7c-0.6,0-1.3,0-1.9,0
			c-0.8,0-1.1-0.3-1.1-1.1C227.1,96.7,227.1,94.8,227.1,93C227.1,93,227.1,93,227.1,93z"/>
		<path class="st0" d="M131.1,25.8c1.3,0,2.5,0.3,3.8,0.7c3.7,1.1,7.3,2.7,10.7,4.5c1.2,0.6,2.3,1.3,3.4,2.1
			c1.9,1.4,3.7,2.8,5.5,4.4c2.2,2,4.2,4.2,6.1,6.5c2.3,2.9,4.1,6,5.7,9.3c1.5,3.1,2.5,6.3,3.2,9.6c0.4,1.8,0.8,3.7,0.9,5.6
			c0,1.1,0.1,2.3,0.1,3.5c0,0.4-0.1,0.5-0.5,0.5c-1.3,0-2.6-0.2-3.8,0.2c-0.4,0.1-0.6-0.2-0.6-0.6c0-1,0.1-2,0-3
			c-0.2-2.7-0.5-5.3-1.3-7.9c-0.8-2.7-1.6-5.4-3-7.8c-1.1-1.9-2-4-3.6-5.6c-0.8-0.8-1.4-2-2.3-2.8c-1.4-1.3-2.4-3-4.1-4
			c-0.4-0.2-0.6-0.7-1-1c-3.1-2.6-6.3-4.9-10-6.4c-1-0.4-1.6-1.1-2.3-1.7C135.5,29.8,133.3,27.8,131.1,25.8z"/>
		<path class="st1" d="M212.4,99.6c-0.1,0-0.1,0-0.2,0c-2.3,0-2.4,0-3.2-2.3c-0.3-0.9-0.7-1.8-1-2.8c-0.2-0.5-0.4-0.6-0.9-0.6
			c-3.2,0-6.5,0-9.7,0c-0.5,0-0.7,0.2-0.8,0.6c-0.5,1.3-1,2.6-1.5,3.9c-0.3,0.8-0.8,1.2-1.7,1.2c-1,0-2,0-2.9,0
			c-0.8,0-1-0.3-0.7-1.1c1.4-3.2,2.7-6.5,4.1-9.7c0.9-2.1,1.8-4.3,2.7-6.4c0.9-1.9,1.7-3.8,2.3-5.8c0.3-0.9,0.9-1.4,2-1.3
			c1.2,0.1,2.5,0,3.7,0c0.5,0,0.8,0.1,1,0.6c1,2.4,2.1,4.7,2.9,7.1c0.6,1.8,1.6,3.4,2.2,5.2c1.2,3.4,2.8,6.7,4,10.2
			c0.3,0.9,0.1,1.2-0.8,1.2C213.5,99.6,212.9,99.6,212.4,99.6C212.4,99.6,212.4,99.6,212.4,99.6z M202.4,80.1
			c-0.3,1-0.8,1.9-1.1,2.8c-0.2,0.7-0.4,1.5-0.8,2.2c-0.8,1.3-1.2,2.8-1.8,4.2c-0.2,0.6-0.2,0.9,0.6,0.9c1.9-0.1,3.8,0,5.8,0
			c1.3,0,1.3,0,0.8-1.2C204.8,86,203.7,83.1,202.4,80.1z"/>
		<path class="st0" d="M131.6,114.3c-5.7,0-11.4,0-17.1,0c-0.7,0-1-0.1-1-0.9c0.1-1,0.1-2.1,0-3.1c0-0.7,0.2-0.9,0.9-0.9
			c2,0,4,0,6.1,0c8.7,0,17.3,0,26,0c1.3,0,2.5-0.1,3.6-0.8c1.4-0.9,2.3-2.1,2.3-3.8c0-1.6,0-3.2,0-4.7c0-0.6,0.1-0.9,0.8-0.9
			c1.4,0,2.7,0,4.1,0c0.5,0,0.7,0.2,0.7,0.6c0,1.8,0.2,3.7,0,5.5c-0.6,4.4-2.7,7.4-7.2,8.6c-1.3,0.4-2.6,0.4-3.9,0.4
			C141.7,114.3,136.6,114.3,131.6,114.3z"/>
		<path class="st1" d="M305.3,98.7c-1.9,0.6-3.9,1-5.9,0.9c-4-0.2-6.6-2.1-6.6-6.5c0-3.1,0-6.2,0-9.3c0-1.1,0.2-1.3,1.3-1.3
			c0.7,0,1.4,0,2.1,0c1.1,0,1.2,0.1,1.2,1.3c0,2.8,0,5.6,0,8.3c0,2.7,1.7,4.1,4.4,3.6c0.9-0.2,1.8-0.4,2.6-0.6
			c0.6-0.2,0.9-0.5,0.9-1.2c0-3.3,0-6.7,0-10.1c0-1.2,0.1-1.4,1.4-1.4c0.7,0,1.3,0,2,0c1.2,0,1.3,0.1,1.3,1.2c0,2.1,0,4.1,0,6.2
			c0,3.2,0,6.3,0,9.5c0,1.3-0.3,2.5-0.8,3.7c-0.9,2.1-2.7,2.9-4.7,3.5c-1.5,0.4-3,0.6-4.4,0.6c-1.2,0-2.4-0.2-3.6-0.4
			c-0.7-0.1-1.5-0.3-2.2-0.5c-0.6-0.1-0.8-0.4-0.8-1c0-0.4,0-0.9,0-1.3c0-1.5,0.2-1.5,1.6-1.3c2,0.3,4,0.6,6,0.5
			c0.8,0,1.5-0.2,2.2-0.4c1.4-0.5,1.9-1.2,2-2.7C305.3,99.6,305.3,99.2,305.3,98.7z"/>
		<path class="st0" d="M152.1,92.2c0-0.8,0-1.6,0-2.4c0.1-3.3,1.5-5.2,4.4-6.3c1.7-0.7,3.4-0.6,5.2-0.5c0.7,0,0.9-0.2,0.9-0.9
			c0-1.7,0-1.7,1.7-2.4c0.5-0.2,0.2-0.8,0.2-1.2c0-0.3-0.1-0.7-0.6-0.7c-1.1,0.1-2.2-0.2-3.3,0.3c-0.8,0.3-1.6,0-2.1-0.8
			c-0.3-0.5-0.2-1,0.2-1.4c0.2-0.3,0.5-0.3,0.8-0.3c1.2,0,2.4,0,3.7,0.2c0.5,0.1,1-0.1,1.4-0.4c0.7-0.5,2.1-0.6,2.6,0
			c0.5,0.5,1,0.5,1.5,0.4c1-0.2,2-0.1,3-0.2c0.7-0.1,1.2,0.1,1.3,0.9c0.1,1-0.3,1.5-1.2,1.6c-0.7,0-1.3,0.1-2-0.1
			c-0.4-0.1-0.9-0.1-1.3-0.1c-1.1,0-1.6,0.7-1.2,1.8c0.1,0.3,0.3,0.3,0.5,0.2c0.8,0,1.1,0.4,1,1.1c0,0.3,0,0.6,0,0.9
			c0,0.8,0.4,1.3,1.2,1.3c1.1,0,2.2-0.1,3.4,0.2c1.8,0.4,4.3,2.2,4.2,4.2c0,0.6,0.2,1.2,0.1,1.8c0,0.3,0.1,0.5,0.3,0.6
			c0.3,0.1,0.4,0.4,0.4,0.8c0.1,1.7,0.1,1.7-1.7,1.7c-1.4,0-2.7,0-4.1,0c-0.5,0-1-0.1-1.1-0.5c-0.1-0.5-0.4-1.2,0.2-1.7
			c0.4-0.3,0.6-0.6,0.4-1.1c-0.2-0.5-0.6-0.8-1.1-0.8c-1,0-1.9-0.2-2.8,0.6c-1.1,1.1-4.8,0.9-5.9-0.3c-0.9-1-3.4-0.2-4,1.1
			c-0.2,0.6-0.2,1.2-0.2,1.9c0,0.4-0.1,0.6-0.6,0.6C155.9,92.2,153.9,92.2,152.1,92.2z"/>
		<path class="st0" d="M317.5,50.9c3.1-1.2,6-1.4,8.9-0.2c0.7,0.3,1.3,0.9,1.7,1.5c0.8,1.2,1.3,2.5,1.3,4c0,3.3,0,6.5,0,9.8
			c0,1.2-0.3,1.4-1.5,1.4c-0.6,0-1.3,0-1.9,0c-1.1,0-1.3-0.2-1.3-1.3c0-2.8,0-5.7,0-8.5c0-0.4,0-0.8,0-1.2c-0.2-1.6-0.6-2.1-2.6-2.3
			c-1.2-0.1-2.4,0-3.6,0.3c-0.6,0.2-0.9,0.5-0.9,1.2c0,3.5,0,7,0,10.5c0,1.1-0.2,1.4-1.4,1.4c-0.7,0-1.4,0-2.1,0
			c-1.1,0-1.3-0.1-1.3-1.3c0-5.5,0-11,0-16.5c0-2.2,0-4.4,0-6.5c0-0.9,0.3-1.2,1.2-1.1c0.8,0.1,1.7,0.1,2.6,0c0.8-0.1,1.1,0.3,1,1
			c0,2.3,0,4.6,0,6.9C317.5,50.2,317.5,50.5,317.5,50.9z"/>
		<path class="st0" d="M360.8,54.7c0-3.8,0-7.5,0-11.3c0-1.5,0.1-1.6,1.6-1.6c0.6,0,1.1,0,1.7,0c1,0,1.4,0.4,1.4,1.4
			c0,4.2,0,8.3,0,12.5c0,0.3-0.2,0.7,0.1,0.9c0.4,0.2,0.8-0.2,1-0.5c1.2-1.3,2.4-2.5,3.5-3.8c0.6-0.7,1.4-1.2,1.9-1.9
			c0.2-0.3,0.5-0.2,0.8-0.2c1.2,0,2.3,0,3.5,0c0.2,0,0.5-0.1,0.6,0.2c0.1,0.3,0,0.6-0.2,0.8c-0.7,0.7-1.3,1.6-2.1,2.2
			c-1,0.8-1.9,1.9-2.8,2.8c-0.4,0.5-1.3,0.7-1.3,1.4c0,0.6,0.8,0.9,1.2,1.4c1.8,2.2,3.6,4.3,5.3,6.5c0.3,0.3,0.7,0.4,0.9,0.8
			c0.4,0.7,0.2,1.2-0.6,1.2c-1.2,0-2.4,0-3.6,0c-0.5,0-0.8-0.2-1.1-0.6c-1.2-1.6-2.5-3.2-3.7-4.8c-0.5-0.6-1-1.3-1.6-1.9
			c-0.5-0.6-1,0-1.5,0.1c-0.5,0-0.4,0.4-0.4,0.7c0,1.7,0,3.5,0,5.2c0,1-0.4,1.3-1.4,1.4c-0.7,0-1.3,0-2,0c-1.1,0-1.3-0.2-1.3-1.3
			c0-3.2,0-6.4,0-9.6C360.8,55.9,360.8,55.3,360.8,54.7z"/>
		<path class="st0" d="M293.2,54.7c0-3.8,0-7.6,0-11.4c0-1.3,0-1.3,1.4-1.3c0.6,0,1.3,0.1,1.9,0c1-0.1,1.2,0.4,1.2,1.3
			c0,3.3,0,6.6,0,10c0,0.8,0,1.6,0,2.4c0,0.3-0.2,0.7,0.2,0.8c0.4,0.1,0.9,0.2,1.2-0.3c1.1-1.5,2.7-2.7,3.8-4.2c1-1.3,2.2-2,3.9-1.8
			c0.6,0.1,1.3,0,2,0c0.3,0,0.5,0,0.7,0.3c0.2,0.3,0,0.5-0.2,0.7c-1.7,1.8-3.5,3.5-5.2,5.3c-0.4,0.4-0.7,0.7-1.1,1.1
			c-0.3,0.2-0.1,0.3,0.1,0.5c2.4,2.8,4.8,5.5,7,8.4c0.1,0.2,0.5,0.3,0.3,0.6c-0.2,0.2-0.4,0.4-0.7,0.4c-1.3,0-2.7,0-4,0
			c-0.3,0-0.5-0.2-0.7-0.4c-0.6-0.9-1.4-1.6-2-2.5c-1-1.4-2.2-2.8-3.3-4.1c-0.5-0.7-1.1-0.3-1.7-0.2c-0.6,0.1-0.4,0.6-0.4,0.9
			c0,1.7,0,3.4,0,5.1c0,0.9-0.3,1.3-1.2,1.2c-0.7-0.1-1.5-0.1-2.2,0c-0.9,0.1-1.1-0.4-1.1-1.2c0-2.2,0-4.4,0-6.6
			C293.2,58,293.2,56.3,293.2,54.7C293.2,54.7,293.2,54.7,293.2,54.7z"/>
		<path class="st0" d="M280.4,60.7c-1.2,0-2.5,0-3.7,0c-0.8,0-0.8,0.4-0.7,0.9c0.3,1.2,1.2,1.7,2.2,2.2c1.6,0.7,3.3,0.5,4.9,0.3
			c1.4-0.1,2.7-0.5,4-0.7c0.6-0.1,1,0,1,0.8c0,0.2,0.1,0.4,0.2,0.6c0.2,2.1-0.1,2.5-2.6,2.8c-1.8,0.2-3.5,0.5-5.3,0.4
			c-2.4-0.1-4.8-0.4-6.8-1.9c-1.2-0.9-1.9-2.3-2.2-3.7c-0.4-2-0.5-4,0-6.1c0.5-2.6,1.8-4.6,5.1-5.4c3.3-0.9,6.6-0.8,9.8,0.2
			c2.4,0.8,4,3.5,3.4,6c-0.5,2.4-1.9,3.4-4.4,3.5C283.6,60.7,282,60.7,280.4,60.7z M280.1,57.5c0.6,0,1.2,0,1.8,0c0.6,0,1.3,0,1.9,0
			c0.6,0,1.1-0.2,1.2-0.8c0.3-1.2-0.6-2.5-1.9-2.6c-1.4-0.1-2.8-0.3-4.3,0c-1.3,0.3-2.7,1.4-2.9,2.7c-0.1,0.6,0.1,0.7,0.6,0.7
			C277.8,57.5,278.9,57.5,280.1,57.5z"/>
		<path class="st0" d="M227.5,66c-2.2,1.7-4.8,2.1-7.5,1.9c-2.2-0.1-4.2-0.8-5.4-3c-1-1.9-0.4-4.8,1.2-6.2c1.5-1.3,3.2-1.4,5-1.7
			c1.9-0.2,3.7-0.1,5.6,0c0.6,0,0.7-0.1,0.7-0.7c0.1-1.7-0.9-2.1-2.3-2.3c-2.5-0.4-4.9,0-7.3,0.4c-0.8,0.1-1.2-0.2-1.2-1.1
			c0-0.6,0-1.2,0-1.8c0-0.5,0.2-0.9,0.7-0.9c3.6-0.3,7.3-0.9,10.9,0.1c2.3,0.6,3.7,1.9,4,4.7c0.1,1.7,0.1,3.3,0,5
			c0,1.9,0.1,3.8,0.3,5.6c0.1,1.2-0.3,1.5-1.5,1.5c-0.3,0-0.6,0-0.9,0C228.3,67.7,228.2,67.5,227.5,66z M224.4,60.2
			c-1-0.1-2.2,0.1-3.3,0.2c-1.1,0.1-2,1-2.1,2c-0.1,0.9,0.5,1.6,1.7,2c2.1,0.6,4,0,5.9-0.9c0.4-0.2,0.6-0.5,0.6-1
			c0-2.2,0-2.2-2.2-2.2C224.8,60.2,224.7,60.2,224.4,60.2z"/>
		<path class="st1" d="M269.5,98c-1.9,1.5-4.1,2-6.5,2c-1.7,0-3.4-0.5-4.8-1.6c-2.3-1.9-1.8-6.7,0.4-7.9c1.7-0.9,3.5-1.3,5.3-1.4
			c1.5-0.1,3.1-0.1,4.6,0c0.6,0,0.7-0.2,0.7-0.7c0-1.6-0.9-2.3-2.9-2.3c-2.2-0.1-4.4,0.1-6.5,0.6c-0.8,0.2-1.2-0.2-1.2-1
			c0-0.6-0.1-1.1-0.2-1.7c-0.1-0.6,0.3-1,0.8-1.1c2.8-0.4,5.5-0.7,8.3-0.3c1.2,0.2,2.3,0.2,3.4,0.7c1.8,0.9,2.6,2.4,2.8,4.3
			c0.2,1.6,0.1,3.3,0.1,4.9c0,2,0,4,0.1,6.1c0,0.8-0.2,1.3-1.1,1.1c-0.4-0.1-0.9,0-1.3,0C270.1,99.6,269.9,99.5,269.5,98z
			 M266.2,92.2c-1,0.1-2.3-0.2-3.4,0.3c-0.7,0.3-1.2,0.9-1.3,1.7c-0.1,0.9,0.4,1.4,1.1,1.8c1.3,0.8,5.1,0.3,6.3-0.8
			c0.3-0.3,0.6-2.6,0.4-2.9c-0.1-0.2-0.3-0.1-0.5-0.1C267.9,92.2,267.1,92.2,266.2,92.2z"/>
		<path class="st0" d="M236,60.6c0-1.7,0-3.4,0-5.1c0-2.1,1.3-3.3,2.8-4.3c1-0.6,2.3-0.9,3.5-0.9c1.8,0,3.6-0.2,5.4,0.2
			c2.4,0.4,4.2,2.2,4.6,4.7c0.5,2.5,0.1,5.1,0.2,7.6c0,1.1,0,2.3,0,3.4c0,0.9-0.4,1.2-1.2,1.2c-0.7,0-1.5,0-2.2,0
			c-1.4,0-1.5-0.1-1.5-1.4c0-2.6,0-5.2,0-7.8c0-0.4,0-0.9,0-1.3c-0.1-1.7-0.7-2.5-2.3-2.7c-1.1-0.1-2.2-0.2-3.3,0.2
			c-0.9,0.3-1.5,0.8-1.5,1.8c0,3.3,0,6.5,0,9.8c0,1.4-0.1,1.5-1.4,1.5c-0.9,0-1.8,0-2.7,0c-0.6,0-0.7-0.5-0.7-1
			C235.9,64.5,235.9,62.6,236,60.6C236,60.6,236,60.6,236,60.6z"/>
		<path class="st0" d="M332.5,60.7c0-1.7,0-3.5,0-5.2c0.1-3.1,2.4-4.6,4.8-5.1c1.8-0.4,3.7-0.5,5.6-0.2c1.9,0.3,3.5,0.9,4.9,2.1
			c0.4,0.4,0.3,0.9,0.5,1.4c0.4,1.1,0.5,2.2,0.5,3.4c0,3,0,5.9,0,8.9c0,1.3-0.2,1.5-1.5,1.5c-0.6,0-1.1,0-1.7,0
			c-1.1,0-1.3-0.2-1.3-1.3c0-2.9,0-5.8,0-8.7c0-2-0.8-3.2-3-3.4c-1.1-0.1-2.1,0-3.1,0.5c-0.7,0.3-1.1,0.8-1.1,1.6
			c-0.1,1.1-0.1,2.2-0.1,3.3c0,2.2,0,4.5,0,6.7c0,1.2-0.2,1.4-1.4,1.4c-0.6,0-1.3,0-1.9,0c-0.9,0.1-1.2-0.4-1.2-1.2
			C332.5,64.3,332.5,62.5,332.5,60.7C332.5,60.7,332.5,60.7,332.5,60.7z"/>
		<path class="st0" d="M257.6,59.1c0-1.4,0-2.7,0-4.1c0-0.5-0.1-0.8-0.7-0.8c-2.7,0.1-2.3-0.1-2.3-2.4c0-1.5,0-1.5,1.5-1.5
			c1.4,0,1.4,0,1.4-1.5c0-1,0-2,0-3c0-0.7,0.3-1,1-1c0.9,0,1.9,0,2.8,0c0.6,0,0.8,0.3,0.8,0.9c0,1.3,0,2.5,0,3.8
			c0,0.7,0.2,0.9,0.9,0.9c1.5,0,3.1,0,4.6,0c0.6,0,0.8,0.2,0.8,0.8c0,0.3,0,0.6,0,0.9c0,2.1,0,2.1-2.1,2.2c-1.1,0-2.3,0-3.4,0
			c-0.4,0-0.6,0-0.6,0.5c0,2.4,0,4.8,0.1,7.2c0,1.1,0.8,1.7,1.9,1.8c1,0,2.1-0.1,3.1-0.3c1-0.3,1.3,0,1.3,1.1c0,0.6-0.1,1.1,0,1.7
			c0.1,0.7-0.2,1-0.8,1.1c-2.1,0.4-4.1,0.6-6.2,0.2c-1.8-0.3-4.1-2.7-4-4.6C257.7,61.7,257.7,60.4,257.6,59.1
			C257.7,59.1,257.6,59.1,257.6,59.1z"/>
		<path class="st1" d="M278.5,91.2c0-1.4,0-2.8,0-4.3c0-0.6-0.2-0.8-0.8-0.7c-2.3,0.1-2-0.3-2-2c0-1.6,0.3-1.7,1.6-1.6
			c0.9,0.1,1.3-0.1,1.2-1.2c-0.1-1.1,0-2.2,0-3.3c0-0.6,0.2-0.9,0.8-0.8c1,0,2.1,0,3.1,0c0.6,0,0.7,0.2,0.7,0.7c0,1.2,0,2.5,0,3.7
			c0,0.7,0.2,1,0.9,0.9c1.5,0,3,0,4.5,0c0.7,0,1,0.2,0.9,1c-0.1,0.6-0.1,1.1,0,1.7c0.1,0.8-0.3,1-1,1c-1.5,0-2.9,0-4.4,0
			c-0.5,0-0.8,0.1-0.8,0.7c0,2.3,0,4.6,0,6.8c0,1.3,0.9,2.1,2.2,2.2c1.1,0.1,2-0.4,3.1-0.4c0.9,0,1.2,0.3,1.2,1.1c0,3,0.5,2.5-2.4,3
			c-2,0.4-4.1,0.6-6-0.5c-1.6-1-2.8-2.3-2.8-4.4C278.5,93.6,278.5,92.4,278.5,91.2C278.5,91.2,278.5,91.2,278.5,91.2z"/>
		<path class="st1" d="M217.6,86.1c0-3.3,0-6.6,0-9.8c0-1.2,0.1-1.2,1.2-1.2c0.8,0,1.6,0,2.5,0c0.8,0,1,0.3,1,1c0,1.8,0,3.6,0,5.4
			c0,4.3,0,8.6,0,13c0,0.9,0.2,1.4,1.2,1.4c0.6,0,0.8,0.3,0.8,0.8c0,0.4,0,0.8,0,1.2c0,1.8,0,1.9-1.8,2.1c-2.5,0.2-5-1-4.8-4.2
			C217.7,92.4,217.6,89.2,217.6,86.1C217.6,86.1,217.6,86.1,217.6,86.1z"/>
		<path class="st0" d="M352.4,58.7c0-2.4,0-4.9,0-7.3c0-1.1,0.2-1.3,1.3-1.3c0.7,0,1.4,0,2.1,0c1.4,0,1.5,0.1,1.5,1.5
			c0,2.7,0,5.3,0,8c0,2.1,0,4.2,0,6.2c0,1.3-0.2,1.5-1.6,1.5c-0.7,0-1.3,0-2,0c-1.1,0-1.3-0.2-1.3-1.3
			C352.4,63.6,352.4,61.1,352.4,58.7C352.4,58.7,352.4,58.7,352.4,58.7z"/>
		<path class="st0" d="M112,111.1c0,1.2,0,2.5,0,3.7c0,1-0.4,1.3-1.4,1.4c-1.3,0-1.4,0-1.4-1.2c0-0.9-0.6-0.4-0.9-0.5
			c-0.4-0.1-0.9-0.2-0.8,0.5c0.1,0.8-0.3,1-1,1c-2,0-2,0-2-2.1c0-2.1,0-4.3,0-6.4c0-1,0.2-1.3,1.3-1.3c1.6,0,3.2,0,4.8,0
			c1.1,0,1.4,0.3,1.4,1.4C112,108.8,112,109.9,112,111.1z M109.2,108.1c0.1-0.7,0-1-0.8-0.9c-0.8,0-0.8,0.3-0.9,1c0,0.8,0.3,1,1,1
			C109.2,109.2,109.2,108.7,109.2,108.1z"/>
		<path class="st0" d="M150.6,63.5c0,1.4-0.2,1.5-1.5,0.9c-1.4-0.6-2.6-1.5-4.1-1.8c-1.3-0.3-1.6-0.2-1.8,1.1
			c-0.1,0.9-0.8,0.8-1.1,0.6c-0.8-0.6-1.8-0.5-2.5-1c-0.2-0.2-0.9-0.2-0.7-0.6c0.3-0.4-0.3-1.2,0.6-1.3c0.3,0,0.4-0.4,0.5-0.6
			c1.2-3.1,4.6-3.1,6.9-1.9c1.5,0.8,2.7,2.1,3.5,3.6C150.6,62.7,150.6,63.1,150.6,63.5z"/>
		<path class="st0" d="M174.9,94.2c1.1,1.6,2.2,3,2.9,4.7c0.3,0.6,0.4,1.3,0.5,2c0.3,2.9-2.8,4.1-4.9,3.1c-1.9-0.9-2.7-3-1.5-4.8
			C172.9,97.6,174,96.1,174.9,94.2z"/>
		<path class="st0" d="M154.9,97.9c-1,0-2,0-3,0c-1.4,0-1.7-0.3-1.6-1.6c0.1-0.6,0.1-1.2,0.1-1.8c0-0.7,0.3-1.1,1.1-1.1
			c2.4,0,4.7,0,7.1,0c0.7,0,0.9,0.3,0.9,0.9c0,0.9,0,1.8,0,2.7c0,0.7-0.3,0.9-0.9,0.9C157.4,97.8,156.2,97.9,154.9,97.9
			C154.9,97.9,154.9,97.9,154.9,97.9z"/>
		<path class="st0" d="M354.7,47.3c-1.6,0-2.6-0.9-2.6-2.4c-0.1-1.7,1.2-2.8,2.8-2.7c1.9,0,2.7,0.5,2.8,2.5
			C357.6,46.3,357,47.3,354.7,47.3z"/>
		<path class="st0" d="M91.5,96.1c1.1-0.2,2.1,0.3,3.1,0.6c0.2,0.1,0.5,0.4,0.8,0.1c0.2-0.2-0.1-0.4-0.1-0.7c0-0.8-0.8-1.2-1.5-1.7
			c0.9-0.1,1.6-0.5,2.1-1.1c1.3-1.3,1.6-2.9,1.8-4.6c0.1-0.6,0-1.3,0-1.9c0-0.2-0.1-0.4,0.2-0.4c0.2,0,0.3,0.1,0.3,0.3
			c0.7,2.5,1.1,5-0.5,7.3c-0.3,0.4-0.2,0.7-0.1,1.1c0.2,0.7,0.5,1.5,0.5,2.2c0,0.4-0.2,0.8-0.6,0.7c-0.4,0-0.2-0.5-0.2-0.7
			c0-0.6-0.1-1.3-0.4-1.8c-0.1-0.2-0.1-0.7-0.6-0.4c-0.4,0.2-0.4,0.4-0.2,0.8c0.4,0.8,0.7,1.6,1.1,2.3c0.1,0.2,0.2,0.4,0,0.6
			c-0.2,0.2-0.3-0.1-0.4-0.2c-1-0.8-2.2-1.3-3.5-1.6C92.7,96.8,92.1,96.6,91.5,96.1z"/>
		<path class="st0" d="M134.8,70.8c0-1.4,1.6-2.5,2.9-1.9c0.9,0.4,1.7,0.8,2.6,1.1c0.4,0.2,0.5,0.3,0.3,0.8
			c-1.1,3.1-1.1,2.3-3.2,1.5c-0.7-0.3-1.4-0.6-2.1-0.8C135,71.3,134.7,71.1,134.8,70.8z"/>
		<path class="st0" d="M118.5,43.1c2,0,2,0,2,2.1c0,0.4,0.1,0.9,0,1.3c-0.1,0.4-0.6,0.6-1.1,0.6c-0.7,0-1.4,0-2.1,0
			c-0.7,0-1-0.3-1-1c0-0.7,0-1.4,0-2.1c-0.1-0.7,0.2-1,0.9-0.9C117.7,43.1,118.1,43.1,118.5,43.1z"/>
		<path class="st0" d="M120.6,40.2c0,2,0,2-2.1,2c-2.2,0-2.1,0.1-2.1-2.2c0-2.1-0.4-1.8,1.9-1.8c0.1,0,0.2,0,0.3,0
			C120.6,38.2,120.6,38.2,120.6,40.2z"/>
		<path class="st0" d="M124,38.2c1.9,0,1.9,0,1.9,1.9c0,1.9,0,1.9-2,2.1c-0.1,0-0.1,0-0.2,0c-2,0-2,0-2-2
			C121.7,37.9,121.7,38.2,124,38.2z"/>
		<path class="st0" d="M125.9,45c0,1.9,0,1.9-1.9,1.9c-2.4,0-2.3,0.2-2.3-2.3c0-0.3,0-0.5,0-0.8c-0.1-0.6,0.2-0.8,0.8-0.8
			c0.9,0,1.9,0,2.8,0c0.4,0,0.6,0.1,0.6,0.6C125.9,44.1,125.9,44.6,125.9,45z"/>
		<path class="st0" d="M118.2,59.1c-0.6-0.3-1.1,0.3-1.7,0.3c0.5-1.2,1.7-1.9,2.8-1.7c0.5,0.1,0.6,0.2,0.3,0.7
			c-0.1,0.1-0.2,0.1-0.2,0.2c0.2,0.5,0.3,1.1-0.3,1.4c-0.4,0.1-0.9-0.4-1.4-0.3C117.8,59.3,118.1,59.3,118.2,59.1z"/>
		<path class="st0" d="M108.3,62.2c1-0.8,1.6-0.6,1.9,0.4c0.1,0.3,0.3,0.4,0.4,0.6c0.2,0.2,0.3,0.5,0.1,0.7
			c-0.2,0.2-0.5,0.1-0.7-0.1c-0.1-0.2-0.4-0.4-0.3-0.5C109.7,62.3,109.1,62.2,108.3,62.2z"/>
	</g>
</g>
</svg>
