<?xml version="1.0" encoding="UTF-8"?> <svg xmlns="http://www.w3.org/2000/svg" width="122" height="123" viewBox="0 0 122 123" fill="none"><path d="M17.4286 0C7.81563 0 0 7.84766 0 17.5V105C0 114.652 7.81563 122.5 17.4286 122.5H104.571C114.184 122.5 122 114.652 122 105V17.5C122 7.84766 114.184 0 104.571 0H17.4286ZM42.1281 26.4414C44.7696 25.7305 47.5473 27.0703 48.5821 29.6133L54.0286 42.7383C54.9545 44.9805 54.3009 47.5508 52.4491 49.082L45.75 54.6055C50.2705 64.2305 58.0317 72.0234 67.6174 76.5625L73.1183 69.8086C74.6433 67.9492 77.2031 67.293 79.4362 68.2227L92.5076 73.6914C95.0402 74.7578 96.3746 77.5195 95.6665 80.1719L92.3987 92.2031C91.7451 94.6094 89.5938 96.25 87.1429 96.25C53.4567 96.25 26.1429 68.8242 26.1429 35C26.1429 32.5391 27.7768 30.3789 30.146 29.7227L42.1281 26.4414Z" fill="#2046D2"></path></svg> 